<?xml version="1.0" standalone="no"?>
<!DOCTYPE svg PUBLIC "-//W3C//DTD SVG 1.1//EN" "http://www.w3.org/Graphics/SVG/1.1/DTD/svg11.dtd" >
<svg xmlns="http://www.w3.org/2000/svg" xmlns:xlink="http://www.w3.org/1999/xlink" version="1.1">
<metadata>
Created by FontForge 20170731 at Fri Jun 15 09:05:27 2018
 By Aleksey,,,
 Copyright (c)2018 Talbot Type. All Rights Reserved
</metadata>
<defs>
<font id="Kessel105Text-Bold" horiz-adv-x="1351" >
  <font-face 
    font-family="Kessel 105 Text Bold"
    font-weight="700"
    font-stretch="normal"
    units-per-em="2048"
    panose-1="2 11 8 3 3 6 0 2 0 3"
    ascent="1536"
    descent="-512"
    x-height="1024"
    cap-height="1485"
    bbox="-78 -547 2535 1903"
    underline-thickness="0"
    underline-position="0"
    unicode-range="U+0020-FB07"
  />
<missing-glyph horiz-adv-x="391" 
 />
    <glyph glyph-name=".notdef" horiz-adv-x="391" 
 />
    <glyph glyph-name="glyph1" horiz-adv-x="0" 
 />
    <glyph glyph-name="glyph2" horiz-adv-x="681" 
 />
    <glyph glyph-name="space" unicode=" " horiz-adv-x="552" 
 />
    <glyph glyph-name="exclam" unicode="!" horiz-adv-x="622" 
d="M406 371h-189l-39 1114h266zM164 131q0 59 44 102t103.5 43t103.5 -43t44 -102t-44 -102t-103.5 -43t-103.5 43t-44 102z" />
    <glyph glyph-name="quotedbl" unicode="&#x22;" horiz-adv-x="663" 
d="M276 1001h-129v484h129v-484zM389 1485h127v-484h-127v484z" />
    <glyph glyph-name="numbersign" unicode="#" horiz-adv-x="1280" 
d="M688 1485l-108 -510h221l108 510h140l-109 -510h279v-133h-308l-45 -205h353v-133h-381l-107 -504h-139l106 504h-221l-106 -504h-140l107 504h-277v133h306l45 205h-351v133h379l109 510h139zM528 842l-45 -205h222l45 205h-222z" />
    <glyph glyph-name="dollar" unicode="$" horiz-adv-x="1302" 
d="M528 -221v196q-250 31 -430 185l135 190q72 -72 182.5 -117t229.5 -45q135 0 220 68t85 174q0 86 -61.5 135t-153.5 63.5t-198.5 39t-198.5 58.5t-153.5 126t-61.5 235q0 162 113.5 275t291.5 143v158h234v-156q213 -27 387 -157l-133 -187q-158 131 -371 131
q-119 0 -192.5 -57t-75.5 -150q-2 -68 43 -110.5t117.5 -63t161.5 -36t177.5 -42t162 -69.5t119.5 -128t46 -208q0 -180 -124 -301t-318 -152v-198h-234z" />
    <glyph glyph-name="percent" unicode="%" horiz-adv-x="1785" 
d="M98 1132.5q0 155.5 114 267t273 111.5q111 0 204 -57t142 -151q23 -45 68 -74t96 -29q94 0 152 80l156 233l147 -96l-977 -1452l-147 96l647 961q-61 6 -111 27q-29 -129 -135 -212t-242 -83q-160 0 -273.5 111.5t-113.5 267zM913 350.5q0 155.5 114 267t273.5 111.5
t273.5 -111.5t114 -267t-114 -267.5t-273.5 -112t-273.5 112t-114 267.5zM287 1132.5q0 -79.5 58 -137t140 -57.5t140.5 57.5t58.5 137t-58.5 137t-140.5 57.5t-140 -57.5t-58 -137zM1102 350q0 -80 58.5 -137t140 -57t140 57t58.5 137t-58.5 137.5t-140 57.5t-140 -57.5
t-58.5 -137.5z" />
    <glyph glyph-name="ampersand" unicode="&#x26;" horiz-adv-x="1392" 
d="M1255 0q-156 0 -237 125q-150 -156 -369 -156q-225 0 -388 149.5t-163 360.5q0 129 75 240.5t200 175.5q-117 102 -117 246q0 154 115.5 263t277.5 109t277.5 -109.5t115.5 -263t-115.5 -263t-277.5 -109.5q-119 0 -204 -86t-85 -203q0 -119 84 -204t205 -85t205 85
t84 204v105q0 117 93 200.5t224 83.5h64v-221h-64q-27 0 -45 -18.5t-18 -44.5v-299q0 -27 18.5 -45.5t44.5 -18.5h64v-221h-64zM498 1140.5q0 -63.5 44 -107.5t107.5 -44t107.5 44t44 107.5t-44 107.5t-107.5 44t-107.5 -44t-44 -107.5z" />
    <glyph glyph-name="quotesingle" unicode="'" horiz-adv-x="423" 
d="M276 1001h-129v484h129v-484z" />
    <glyph glyph-name="parenleft" unicode="(" horiz-adv-x="692" 
d="M377 508q0 -545 241 -987h-190q-240 522 -240 987t240 987h190q-241 -442 -241 -987z" />
    <glyph glyph-name="parenright" unicode=")" horiz-adv-x="692" 
d="M315 508q0 545 -241 987h190q240 -522 240 -987t-240 -987h-190q241 442 241 987z" />
    <glyph glyph-name="asterisk" unicode="*" horiz-adv-x="831" 
d="M311 1282l-114 49l65 113l100 -74l-10 125h129l-12 -125l104 74l62 -113l-115 -49l115 -55l-62 -109l-104 72l12 -127h-129l10 127l-100 -72l-65 109z" />
    <glyph glyph-name="plus" unicode="+" horiz-adv-x="1286" 
d="M123 598h426v426h188v-426h426v-172h-426v-426h-188v426h-426v172z" />
    <glyph glyph-name="comma" unicode="," horiz-adv-x="573" 
d="M248 -131q72 0 71 80v41q-20 -4 -32 -4q-57 0 -98.5 40t-41.5 97t41 97t98.5 40t98.5 -40t41 -97v-174q0 -86 -47 -130t-131 -44h-51v94h51z" />
    <glyph glyph-name="hyphen" unicode="-" horiz-adv-x="933" 
d="M172 598h590v-172h-590v172z" />
    <glyph glyph-name="period" unicode="." horiz-adv-x="573" 
d="M147 123q0 57 41 97t98.5 40t98.5 -40t41 -97t-41 -97t-98.5 -40t-98.5 40t-41 97z" />
    <glyph glyph-name="slash" unicode="/" horiz-adv-x="1038" 
d="M147 20l623 1498l121 -52l-623 -1497z" />
    <glyph glyph-name="zero" unicode="0" 
d="M1229 1042v-600q0 -199 -161 -336t-392 -137q-233 0 -393 136.5t-160 336.5v600q0 199 159.5 335t393.5 136q231 0 392 -136t161 -335zM975 442v600q0 104 -86 177t-213 73t-213 -72.5t-86 -177.5v-600q0 -104 86 -178t213 -74t213 74t86 178z" />
    <glyph glyph-name="one" unicode="1" horiz-adv-x="802" 
d="M115 999v244l540 303v-1546h-254v1155z" />
    <glyph glyph-name="two" unicode="2" horiz-adv-x="1236" 
d="M1012 705l-396 -484h492v-221h-981l692 856q57 72 58 174q0 109 -76 186.5t-186.5 77.5t-186.5 -79.5t-76 -194.5h-254q0 205 151.5 350.5t364.5 145.5q215 0 370 -141.5t155 -344.5q0 -169 -127 -325z" />
    <glyph glyph-name="three" unicode="3" horiz-adv-x="1228" 
d="M231 791l383 473h-415v221h901l-422 -529q211 -33 331.5 -166t120.5 -331q0 -209 -154.5 -349.5t-371.5 -140.5q-211 0 -362.5 138.5t-151.5 338.5h254q0 -102 77 -179t183 -77q109 0 186.5 80t77.5 189q0 104 -77.5 180t-186.5 76q-113 0 -186 -78z" />
    <glyph glyph-name="four" unicode="4" horiz-adv-x="1228" 
d="M25 270l755 1215h254v-993h137v-222h-137v-270h-254v270h-755zM455 492h325v540z" />
    <glyph glyph-name="five" unicode="5" horiz-adv-x="1267" 
d="M418 651l-240 39l137 795h695v-221h-484l-53 -332l4 -6q84 41 211 41q207 0 344 -142.5t137 -355.5q0 -233 -149.5 -366.5t-392.5 -133.5q-229 0 -383 135.5t-154 354.5h254q0 -106 86 -187.5t197 -81.5q115 0 197.5 82t82.5 197q0 111 -85 193.5t-195 82.5
q-129 0 -209 -94z" />
    <glyph glyph-name="six" unicode="6" horiz-adv-x="1277" 
d="M98 469q0 123 66 233l469 783h276l-317 -522q37 6 72 6q213 0 364.5 -146.5t151.5 -353.5t-159 -353.5t-382 -146.5t-382 146.5t-159 353.5zM360 469q0 -115 82 -197t197 -82t197 82t82 197t-82 197t-197 82t-197 -82t-82 -197z" />
    <glyph glyph-name="seven" unicode="7" horiz-adv-x="1202" 
d="M801 1262h-727v223h1075l-588 -1485h-268z" />
    <glyph glyph-name="eight" unicode="8" horiz-adv-x="1261" 
d="M197 1137q0 170 123.5 274.5t310 104.5t310.5 -104.5t124 -274.5t-141 -273q240 -156 239 -407q0 -217 -151.5 -352.5t-381 -135.5t-381 135.5t-151.5 352.5q0 252 240 407q-141 103 -141 273zM360 463q0 -113 79 -193t191.5 -80t191.5 80t79 193q0 109 -80 187.5
t-190.5 78.5t-190.5 -78.5t-80 -187.5zM805 1120.5q0 71.5 -51.5 122.5t-123 51t-122.5 -51t-51 -122.5t51 -123t122.5 -51.5t123 51.5t51.5 123z" />
    <glyph glyph-name="nine" unicode="9" horiz-adv-x="1277" 
d="M1180 1016q0 -123 -66 -234l-469 -782h-276l317 522q-37 -6 -72 -6q-213 0 -364.5 146.5t-151.5 353.5t159 353.5t382 146.5t382 -146.5t159 -353.5zM918 1015.5q0 114.5 -82 196.5t-197 82t-197 -82t-82 -196.5t82 -196.5t197 -82t197 82t82 196.5z" />
    <glyph glyph-name="colon" unicode=":" horiz-adv-x="573" 
d="M147 123q0 57 41 97t98.5 40t98.5 -40t41 -97t-41 -97t-98.5 -40t-98.5 40t-41 97zM147 901q0 57 41 97t98.5 40t98.5 -40t41 -97t-41 -97t-98.5 -40t-98.5 40t-41 97z" />
    <glyph glyph-name="semicolon" unicode=";" horiz-adv-x="573" 
d="M147 901q0 57 41 97t98.5 40t98.5 -40t41 -97t-41 -97t-98.5 -40t-98.5 40t-41 97zM248 -131q72 0 71 80v41q-20 -4 -32 -4q-57 0 -98.5 40t-41.5 97t41 97t98.5 40t98.5 -40t41 -97v-174q0 -86 -47 -130t-131 -44h-51v94h51z" />
    <glyph glyph-name="less" unicode="&#x3c;" horiz-adv-x="798" 
d="M700 1024v-221l-430 -287v-8l430 -287v-221l-602 422v180z" />
    <glyph glyph-name="equal" unicode="=" horiz-adv-x="1286" 
d="M123 449h1040v-173h-1040v173zM123 750h1040v-172h-1040v172z" />
    <glyph glyph-name="greater" unicode="&#x3e;" horiz-adv-x="798" 
d="M98 803v221l602 -422v-180l-602 -422v221l430 287v8z" />
    <glyph glyph-name="question" unicode="?" horiz-adv-x="1247" 
d="M621 1516q229 0 378.5 -140.5t149.5 -361.5q0 -188 -119 -316.5t-282 -142.5v-162h-254v346h127q115 0 190.5 80t75.5 195q0 117 -76 198.5t-190.5 81.5t-191.5 -83t-77 -197h-254q0 221 149 361.5t374 140.5zM473 131q0 59 44 102t103.5 43t103.5 -43t44 -102t-44 -102
t-103.5 -43t-103.5 43t-44 102z" />
    <glyph glyph-name="at" unicode="@" horiz-adv-x="1609" 
d="M1276 596v68q0 201 -142.5 344t-341 143t-340 -143.5t-141.5 -344t141.5 -344t340.5 -143.5q98 0 217 55l92 -188q-143 -74 -309 -74q-287 0 -491 204t-204 490.5t204 490.5t490.5 204t490.5 -204t204 -490v-68q0 -115 -83 -196t-198 -81q-121 0 -192 78
q-90 -76 -221 -75q-143 0 -246 100t-103 241.5t102.5 242t246 100.5t245 -99.5t101.5 -242.5v-74q4 -27 22.5 -45.5t44.5 -18.5q29 0 49.5 20.5t20.5 49.5zM928 663.5q0 55.5 -40 96.5t-95.5 41t-95.5 -41t-40 -96.5t40 -96.5t95.5 -41t95.5 41t40 96.5z" />
    <glyph glyph-name="A" unicode="A" horiz-adv-x="1511" 
d="M1186 0l-111 254l-641 -6l-108 -248h-285l715 1546l714 -1546h-284zM752 979l-222 -510l449 4l-219 506h-8z" />
    <glyph glyph-name="B" unicode="B" horiz-adv-x="1380" 
d="M1282 418q0 -193 -133 -305.5t-332 -112.5h-670v1485h637q186 0 309.5 -108.5t123.5 -295.5q0 -66 -17.5 -117t-49.5 -85.5t-58.5 -54t-63.5 -40.5q104 -39 179 -131t75 -235zM401 1253v-374h383q68 0 119 57t51 129q0 76 -50 132t-120 56h-383zM1020 440q0 90 -58.5 156
t-144.5 66h-416v-441h416q84 0 143.5 65.5t59.5 153.5z" />
    <glyph glyph-name="C" unicode="C" horiz-adv-x="1622" 
d="M360 741.5q0 -229.5 159 -390.5t390 -161q133 0 249 58.5t192 157.5l174 -170q-113 -125 -272.5 -196t-342.5 -71q-340 0 -575.5 225.5t-235.5 547t235.5 548t575.5 226.5q182 0 342 -71t273 -196l-174 -170q-76 98 -192 156.5t-249 58.5q-231 0 -390 -161.5t-159 -391z
" />
    <glyph glyph-name="D" unicode="D" horiz-adv-x="1546" 
d="M147 0v1485h580q311 0 516 -215t205 -528.5t-205 -527.5t-516 -214h-580zM1186 741.5q0 221.5 -129 372t-330 150.5h-326v-1043h326q201 0 330 149.5t129 371z" />
    <glyph glyph-name="E" unicode="E" horiz-adv-x="1292" 
d="M401 221h793v-221h-1047v1485h1047v-221h-793v-410h656v-221h-656v-412z" />
    <glyph glyph-name="F" unicode="F" horiz-adv-x="1214" 
d="M401 0h-254v1485h1006v-221h-752v-410h615v-221h-615v-633z" />
    <glyph glyph-name="G" unicode="G" horiz-adv-x="1622" 
d="M1487 854v-625q-246 -260 -578 -260q-340 0 -575.5 225.5t-235.5 547t235.5 548t575.5 226.5q311 0 543 -222l-170 -166q-160 166 -373 166q-231 0 -390 -161.5t-159 -391t159 -390.5t390 -161q176 0 324 127v316h-324v221h578z" />
    <glyph glyph-name="H" unicode="H" horiz-adv-x="1435" 
d="M1288 0h-254v633h-633v-633h-254v1485h254v-631h633v631h254v-1485z" />
    <glyph glyph-name="I" unicode="I" horiz-adv-x="548" 
d="M147 0v1485h254v-1485h-254z" />
    <glyph glyph-name="J" unicode="J" horiz-adv-x="1028" 
d="M440 -35q-119 0 -222 42t-169 116l158 164q31 -39 88 -70t104 -31q100 0 164 59.5t64 180.5v1059h254v-1067q0 -223 -118 -338t-323 -115z" />
    <glyph glyph-name="K" unicode="K" horiz-adv-x="1296" 
d="M147 0v1485h254v-701l543 701h311l-579 -744l579 -741h-311l-420 545l-123 -156v-389h-254z" />
    <glyph glyph-name="L" unicode="L" horiz-adv-x="1175" 
d="M1135 221v-221h-988v1485h254v-1264h734z" />
    <glyph glyph-name="M" unicode="M" horiz-adv-x="1794" 
d="M1647 1546v-1546h-254l2 954h-6l-492 -487l-491 487h-7l2 -954h-254v1546l748 -739h4z" />
    <glyph glyph-name="N" unicode="N" horiz-adv-x="1454" 
d="M1307 -63l-901 976h-7l2 -913h-254v1546l900 -952h8l-2 891h254v-1548z" />
    <glyph glyph-name="O" unicode="O" horiz-adv-x="1818" 
d="M98 741.5q0 321.5 235.5 548t575.5 226.5t575.5 -226.5t235.5 -548t-235.5 -547t-575.5 -225.5t-575.5 225.5t-235.5 547zM360 741.5q0 -229.5 159 -390.5t390.5 -161t390 161t158.5 390.5t-158.5 391t-390 161.5t-390.5 -161.5t-159 -391z" />
    <glyph glyph-name="P" unicode="P" horiz-adv-x="1374" 
d="M1288 989q0 -213 -149.5 -354t-366.5 -141h-371v-494h-254v1485h625q217 0 366.5 -141.5t149.5 -354.5zM1026 989.5q0 112.5 -73.5 193.5t-180.5 81h-371v-549h371q106 0 180 81t74 193.5z" />
    <glyph glyph-name="Q" unicode="Q" horiz-adv-x="1826" 
d="M98 741.5q0 321.5 235.5 548t575.5 226.5t575.5 -226.5t235.5 -548.5q0 -250 -151 -450l117 -103v-297l-275 242q-219 -164 -502 -164q-340 0 -575.5 225.5t-235.5 547zM360 741q0 -236 162 -393v8q0 152 111.5 266.5t275.5 114.5q158 0 269 -98l202 -182q78 133 78 284
q0 229 -158.5 391t-390 162t-390.5 -162t-159 -391zM739 356q0 -72 48.5 -119t121.5 -47q180 0 322 103l-215 190q-47 39 -107 39q-70 0 -120 -48t-50 -118z" />
    <glyph glyph-name="R" unicode="R" horiz-adv-x="1386" 
d="M1288 989q0 -158 -86 -279.5t-227 -179.5l272 -530h-284l-246 494h-316v-494h-254v1485h625q217 0 366.5 -141.5t149.5 -354.5zM1026 989.5q0 112.5 -73.5 193.5t-180.5 81h-371v-549h371q106 0 180 81t74 193.5z" />
    <glyph glyph-name="S" unicode="S" horiz-adv-x="1302" 
d="M1149 1350l-133 -187q-158 131 -371 131q-119 0 -192.5 -57t-75.5 -150q-2 -68 43 -110.5t117.5 -63t161.5 -36t177.5 -42t162 -69.5t119.5 -128t46 -208q0 -207 -160.5 -335t-398.5 -128q-322 0 -547 193l135 190q72 -72 182.5 -117t229.5 -45q135 0 220 68t85 174
q0 86 -61.5 135t-153.5 63.5t-198.5 39t-198.5 58.5t-153.5 126t-61.5 235q0 190 151.5 309.5t370.5 119.5q289 0 504 -166z" />
    <glyph glyph-name="T" unicode="T" horiz-adv-x="1212" 
d="M1163 1264h-430v-1264h-254v1264h-430v221h1114v-221z" />
    <glyph glyph-name="U" unicode="U" horiz-adv-x="1474" 
d="M1327 1485v-965q0 -252 -165 -401.5t-425 -149.5t-425 149.5t-165 401.5v965h254v-965q0 -147 96.5 -238.5t240 -91.5t239.5 91.5t96 238.5v965h254z" />
    <glyph glyph-name="V" unicode="V" horiz-adv-x="1511" 
d="M326 1485l426 -979h8l426 979h284l-714 -1546l-715 1546h285z" />
    <glyph glyph-name="W" unicode="W" horiz-adv-x="2158" 
d="M1473 598l360 887h285l-648 -1546l-389 950h-4l-389 -950l-647 1546h285l354 -887h6l393 948z" />
    <glyph glyph-name="X" unicode="X" horiz-adv-x="1359" 
d="M676 535l-334 -537h-301l487 743l-487 744h301l334 -537h8l334 537h301l-488 -744l488 -743h-301l-334 537h-8z" />
    <glyph glyph-name="Y" unicode="Y" horiz-adv-x="1406" 
d="M1065 1485h301l-532 -858v-627h-254v627l-539 858h301l360 -596h9z" />
    <glyph glyph-name="Z" unicode="Z" horiz-adv-x="1308" 
d="M127 1264v221h1141l-797 -1268l711 4v-221h-1141l797 1266z" />
    <glyph glyph-name="bracketleft" unicode="[" horiz-adv-x="659" 
d="M369 -346h217v-166h-398v1997h398v-166h-217v-1665z" />
    <glyph glyph-name="backslash" unicode="\" horiz-adv-x="1038" 
d="M268 1518l623 -1498l-121 -51l-623 1497z" />
    <glyph glyph-name="bracketright" unicode="]" horiz-adv-x="659" 
d="M74 -346h217v1665h-217v166h397v-1997h-397v166z" />
    <glyph glyph-name="asciicircum" unicode="^" horiz-adv-x="1140" 
d="M479 1485h180l334 -664h-205l-215 463h-4l-219 -463h-203z" />
    <glyph glyph-name="underscore" unicode="_" horiz-adv-x="1024" 
d="M0 -164h1106v-49h-1106v49z" />
    <glyph glyph-name="grave" unicode="`" horiz-adv-x="933" 
d="M709 1370v-160l-484 121v205z" />
    <glyph glyph-name="a" unicode="a" horiz-adv-x="1388" 
d="M987 0v164h-2q-119 -195 -342 -195q-227 0 -386 156t-159 387q0 229 160 386t385 157q207 0 342 -178h2v147h254v-1024h-254zM360 512q0 -129 91.5 -221t222.5 -92t222 92t91 221t-91 221t-222 92t-222.5 -92t-91.5 -221z" />
    <glyph glyph-name="b" unicode="b" horiz-adv-x="1388" 
d="M401 512q0 -129 91.5 -221t222.5 -92t222 92t91 221t-91 221t-222 92t-222.5 -92t-91.5 -221zM401 164v-164h-254v1536h254v-659h2q135 178 342 178q225 0 385 -157t160 -386q0 -231 -158.5 -387t-386.5 -156q-223 0 -342 195h-2z" />
    <glyph glyph-name="c" unicode="c" horiz-adv-x="1153" 
d="M674 199q129 0 221 92l172 -174q-168 -147 -393 -148q-231 0 -403.5 157t-172.5 386t172 386t404 157q227 0 393 -150l-172 -172q-96 92 -221 92q-129 0 -221.5 -92t-92.5 -221t92.5 -221t221.5 -92z" />
    <glyph glyph-name="d" unicode="d" horiz-adv-x="1388" 
d="M987 512q0 129 -91 221t-222 92t-222.5 -92t-91.5 -221t91.5 -221t222.5 -92t222 92t91 221zM987 0v164h-2q-119 -195 -342 -195q-227 0 -386 156t-159 387q0 229 160 386t385 157q207 0 342 -178h2v659h254v-1536h-254z" />
    <glyph glyph-name="e" unicode="e" horiz-adv-x="1304" 
d="M1206 514q0 -59 -14 -115h-823q27 -92 108.5 -151.5t179.5 -59.5q86 0 165 42t120 108l170 -150q-78 -100 -197.5 -159.5t-257.5 -59.5q-233 0 -396 157t-163 388q0 229 163 385t396 156q227 0 388 -158t161 -383zM371 612h567q-23 98 -100.5 163t-180 65t-183 -65
t-103.5 -163z" />
    <glyph glyph-name="f" unicode="f" horiz-adv-x="686" 
d="M74 819v205h96v272q0 119 87 195t212 76q94 0 168 -39l-62 -191q-18 14 -65 15q-35 0 -60.5 -22.5t-25.5 -55.5v-250h174v-205h-174v-819h-254v819h-96z" />
    <glyph glyph-name="g" unicode="g" horiz-adv-x="1388" 
d="M668 -317q121 0 220 53t99 151v277h-2q-119 -195 -342 -195q-227 0 -386 156t-159 387q0 229 160 386t385 157q207 0 342 -178h2v147h254v-1063q0 -248 -156.5 -376t-416.5 -128q-236 0 -432 123l118 203q158 -100 314 -100zM360 512q0 -129 91.5 -221t222.5 -92t222 92
t91 221t-91 221t-222 92t-222.5 -92t-91.5 -221z" />
    <glyph glyph-name="h" unicode="h" horiz-adv-x="1228" 
d="M401 0h-254v1536h254v-649h5q39 68 116.5 118t177.5 50q178 0 288 -121t110 -316v-618h-254v602q0 94 -63.5 158.5t-158 64.5t-158 -64.5t-63.5 -158.5v-602z" />
    <glyph glyph-name="i" unicode="i" horiz-adv-x="548" 
d="M147 1024h254v-1024h-254v1024zM119 1400.5q0 63.5 45 107.5t110.5 44t110.5 -44t45 -107.5t-45 -107.5t-110.5 -44t-110.5 44t-45 107.5z" />
    <glyph glyph-name="j" unicode="j" horiz-adv-x="598" 
d="M180 1400.5q0 63.5 45 107.5t110.5 44t111 -44t45.5 -107.5t-45.5 -107.5t-111 -44t-110.5 44t-45 107.5zM463 1024v-1296q0 -119 -87 -195t-212 -76q-115 0 -197 56l74 196q33 -27 82 -26q33 0 57.5 22.5t28.5 54.5v1264h254z" />
    <glyph glyph-name="k" unicode="k" horiz-adv-x="1167" 
d="M799 1024h331l-450 -475l450 -549h-313l-307 375l-109 -121v-254h-254v1536h254v-934z" />
    <glyph glyph-name="l" unicode="l" horiz-adv-x="548" 
d="M147 0v1536h254v-1536h-254z" />
    <glyph glyph-name="m" unicode="m" horiz-adv-x="1753" 
d="M401 0h-254v1024h254v-150h2q100 180 254 181q199 0 283 -195q35 78 115 136.5t180 58.5q178 0 282.5 -113t104.5 -299v-643h-254v647q0 76 -51 127t-127 51q-74 0 -126 -51t-52 -127v-647h-254v647q0 76 -51.5 127t-127 51t-127 -51t-51.5 -127v-647z" />
    <glyph glyph-name="n" unicode="n" horiz-adv-x="1232" 
d="M401 0h-254v1024h254v-158h2q94 188 297 189q176 0 289 -122t113 -315v-618h-254v602q0 94 -64.5 158.5t-159 64.5t-159 -64.5t-64.5 -158.5v-602z" />
    <glyph glyph-name="o" unicode="o" horiz-adv-x="1347" 
d="M987 512q0 129 -92 221t-221 92t-221.5 -92t-92.5 -221t92.5 -221t221.5 -92t221 92t92 221zM1249 512q0 -229 -172 -386t-403.5 -157t-403.5 157t-172 386t172 386t403.5 157t403.5 -157t172 -386z" />
    <glyph glyph-name="p" unicode="p" horiz-adv-x="1388" 
d="M401 512q0 -129 91.5 -221t222.5 -92t222 92t91 221t-91 221t-222 92t-222.5 -92t-91.5 -221zM401 1024v-164h2q119 195 342 195q227 0 386 -156t159 -387q0 -229 -159.5 -386t-385.5 -157q-207 0 -342 178h-2v-659h-254v1536h254z" />
    <glyph glyph-name="q" unicode="q" horiz-adv-x="1388" 
d="M987 512q0 129 -91 221t-222 92t-222.5 -92t-91.5 -221t91.5 -221t222.5 -92t222 92t91 221zM987 860v164h254v-1536h-254v659h-2q-135 -178 -342 -178q-225 0 -385 157t-160 386q0 231 159 387t386 156q223 0 342 -195h2z" />
    <glyph glyph-name="r" unicode="r" horiz-adv-x="854" 
d="M662 1055q82 0 155 -25l-80 -229q-37 12 -75 12q-109 0 -185 -77t-76 -187v-549h-254v1024h254v-152q105 183 261 183z" />
    <glyph glyph-name="s" unicode="s" horiz-adv-x="1077" 
d="M530 193q86 -4 136.5 23.5t50.5 76.5q0 51 -45 78.5t-112.5 34t-145.5 22.5t-145.5 42t-112.5 94.5t-45 176.5q0 147 115.5 231.5t303.5 84.5q227 0 410 -121l-111 -188q-109 86 -299 86q-158 0 -157 -93q0 -59 62.5 -83.5t151.5 -34t178 -31t151.5 -95t62.5 -204.5
q0 -152 -129 -238t-320 -86q-248 0 -432 121l121 201q112 -86 311 -98z" />
    <glyph glyph-name="t" unicode="t" horiz-adv-x="700" 
d="M61 819v205h113v334h254v-334h195v-205h-195v-557q0 -33 25.5 -55.5t60.5 -22.5q41 0 72 25l65 -180q-80 -59 -209 -60q-119 0 -193.5 76t-74.5 197v577h-113z" />
    <glyph glyph-name="u" unicode="u" horiz-adv-x="1232" 
d="M831 1024h254v-1024h-254v158h-4q-94 -188 -297 -189q-176 0 -287.5 122t-111.5 315v618h254v-602q0 -94 64.5 -158.5t156.5 -64.5q94 0 159.5 64.5t65.5 158.5v602z" />
    <glyph glyph-name="v" unicode="v" horiz-adv-x="1155" 
d="M1106 1024l-531 -1087l-526 1087h268l256 -547h7l256 547h270z" />
    <glyph glyph-name="w" unicode="w" horiz-adv-x="1703" 
d="M29 1024h266l250 -537h8l278 600l281 -600h6l250 537h266l-520 -1087l-278 602h-9l-278 -602z" />
    <glyph glyph-name="x" unicode="x" horiz-adv-x="1142" 
d="M422 514l-373 510h299l221 -322h4l222 322h299l-373 -510l373 -514h-299l-222 324h-4l-221 -324h-299z" />
    <glyph glyph-name="y" unicode="y" horiz-adv-x="1132" 
d="M1083 1024l-591 -1536h-259l205 535l-389 1001h260l256 -682h4l254 682h260z" />
    <glyph glyph-name="z" unicode="z" horiz-adv-x="1064" 
d="M489 221h482v-221h-922l529 799v4h-482v221h920l-527 -799v-4z" />
    <glyph glyph-name="braceleft" unicode="{" horiz-adv-x="802" 
d="M729 -512h-96q-113 0 -193 80t-80 192v549q0 37 -25.5 63.5t-64.5 26.5h-82v176h82q39 0 64.5 27t25.5 66v544q0 115 80 194t193 79h96v-166h-96q-37 0 -64.5 -34t-27.5 -73v-544q0 -109 -109 -176v-7q109 -66 109 -176v-549q0 -39 27.5 -72.5t64.5 -33.5h96v-166z" />
    <glyph glyph-name="bar" unicode="|" horiz-adv-x="770" 
d="M475 -512h-180v1997h180v-1997z" />
    <glyph glyph-name="braceright" unicode="}" horiz-adv-x="802" 
d="M170 -512h-96v166h96q37 0 64.5 33.5t27.5 72.5v549q0 111 109 176v7q-109 68 -109 176v544q0 39 -27.5 73t-64.5 34h-96v166h96q113 0 192.5 -79t79.5 -194v-544q0 -39 26 -66t64 -27h82v-176h-82q-39 0 -64.5 -26.5t-25.5 -63.5v-549q0 -113 -79.5 -192.5t-192.5 -79.5
z" />
    <glyph glyph-name="asciitilde" unicode="~" horiz-adv-x="1067" 
d="M791 393q-127 -59 -287 58q-92 63 -125 67q-16 0 -33 -6q-47 -23 -47 -76h-152q0 133 129 203q127 59 287 -57q92 -63 125 -68q16 0 33 6q47 23 47 76h152q0 -133 -129 -203z" />
    <glyph glyph-name="uni00A0" unicode="&#xa0;" horiz-adv-x="1232" 
 />
    <glyph glyph-name="exclamdown" unicode="&#xa1;" horiz-adv-x="622" 
d="M217 1114h189l38 -1114h-266zM164 1353.5q0 59.5 44 102.5t103.5 43t103.5 -43t44 -102.5t-44 -102.5t-103.5 -43t-103.5 43t-44 102.5z" />
    <glyph glyph-name="cent" unicode="&#xa2;" horiz-adv-x="1153" 
d="M557 -195v177q-195 37 -327 184t-132 346t132 346.5t327 183.5v148h234v-148q154 -31 276 -137l-172 -172q-96 92 -221 92q-129 0 -221.5 -92t-92.5 -221t92.5 -221t221.5 -92t221 92l172 -174q-125 -109 -276 -135v-177h-234z" />
    <glyph glyph-name="sterling" unicode="&#xa3;" horiz-adv-x="1255" 
d="M260 631h-162v221h162v178q0 213 143.5 349.5t360.5 136.5q186 0 338 -132l-150 -170q-86 80 -188 80q-119 0 -184.5 -66.5t-65.5 -197.5v-178h375v-221h-375v-299q121 -10 223 -103q39 -39 87 -39t89 37l88 86l156 -161l-80 -80q-111 -104 -259 -101.5t-247 101.5
q-37 37 -88 35.5t-84 -35.5l-92 -103l-182 170l98 101q37 37 37 86v305z" />
    <glyph glyph-name="currency" unicode="&#xa4;" horiz-adv-x="1241" 
d="M137 514q0 147 84 270l-121 123l127 127l121 -123q123 84 273 84q147 0 270 -84l123 123l129 -127l-123 -123q84 -127 84 -270q0 -145 -84 -272l123 -123l-129 -129l-123 123q-117 -82 -270.5 -82t-272.5 82l-123 -123l-127 127l123 125q-84 122 -84 272zM315 514
q0 -127 89.5 -217t216.5 -90t217 90t90 217q0 125 -90 215t-217 90q-125 0 -215.5 -90t-90.5 -215z" />
    <glyph glyph-name="yen" unicode="&#xa5;" horiz-adv-x="1341" 
d="M143 887v151h164l-258 447h301l320 -596h8l313 596h301l-256 -447h162v-151h-248l-63 -109h311v-151h-397v-627h-254v627h-404v151h316l-64 109h-252z" />
    <glyph glyph-name="brokenbar" unicode="&#xa6;" horiz-adv-x="770" 
d="M475 1485v-885h-180v885h180zM475 -512h-180v885h180v-885z" />
    <glyph glyph-name="section" unicode="&#xa7;" horiz-adv-x="1124" 
d="M1001 506q0 -129 -102 -211q80 -76 80 -219q0 -147 -112.5 -231.5t-299.5 -84.5q-233 0 -409 121l110 189q119 -90 299 -90q80 0 119 26.5t39 69.5q0 59 -62.5 83.5t-150.5 34t-176 30t-150.5 95t-62.5 205.5q0 133 100 211q-78 72 -78 221q0 147 113 231.5t299 84.5
q229 0 408 -121l-109 -190q-121 92 -299 92q-80 0 -119 -27t-39 -70q0 -59 62.5 -83.5t150.5 -34t176.5 -31t150.5 -96t62 -205.5zM381 520q-2 -61 43 -92t135 -35q178 -6 184 113q2 63 -43 94t-135 35q-178 4 -184 -115z" />
    <glyph glyph-name="dieresis" unicode="&#xa8;" horiz-adv-x="1196" 
d="M700 1368q0 55 39 94t96.5 39t96.5 -39t39 -94t-39 -94t-96.5 -39t-96.5 39t-39 94zM225 1368q0 55 39 94t96.5 39t96.5 -39t39 -94t-39 -94t-96.5 -39t-96.5 39t-39 94z" />
    <glyph glyph-name="copyright" unicode="&#xa9;" horiz-adv-x="1280" 
d="M410 514q0 -96 67.5 -165.5t161.5 -69.5q98 0 164 69l94 -94q-104 -104 -258 -104q-152 0 -257.5 105t-105.5 259q0 150 106.5 256.5t256.5 106.5q152 0 258 -107l-94 -94q-68 72 -164 72q-94 0 -161.5 -69t-67.5 -165zM1114 514q0 199 -138 339t-337 140
q-197 0 -336 -141t-139 -338q0 -199 139 -340t336 -141q199 0 337 141t138 340zM1182 514q0 -225 -159 -385t-384 -160q-223 0 -382 160t-159 385q0 223 158 382t383 159t384 -158t159 -383z" />
    <glyph glyph-name="ordfeminine" unicode="&#xaa;" horiz-adv-x="792" 
d="M543 973v82h-2q-59 -98 -170 -99q-113 0 -193 78t-80 195q0 115 80 192.5t193 77.5q104 0 170 -88h2v74h127v-512h-127zM229 1228.5q0 -65.5 46.5 -111.5t109.5 -46q66 0 112 46t46 111.5t-46 110.5t-112 45t-111 -45t-45 -110.5z" />
    <glyph glyph-name="guillemotleft" unicode="&#xab;" horiz-adv-x="950" 
d="M98 512l377 375v-256l-133 -117v-6l133 -119v-254zM475 512l377 375v-256l-131 -117v-6l131 -119v-254z" />
    <glyph glyph-name="logicalnot" unicode="&#xac;" horiz-adv-x="882" 
d="M735 301h-188v125h-400v172h588v-297z" />
    <glyph glyph-name="registered" unicode="&#xae;" horiz-adv-x="686" 
d="M588 1271.5q0 -100.5 -72 -173t-172 -72.5q-102 0 -174 72.5t-72 173t73 172.5t173 72t172 -72t72 -172.5zM557 1272q0 90 -62.5 152.5t-150.5 62.5q-90 0 -152.5 -62.5t-62.5 -152.5t62.5 -153.5t152.5 -63.5q88 0 150.5 63.5t62.5 153.5zM471 1118h-68l-55 113h-55
v-113h-62v314h138q45 0 75.5 -30t30.5 -71q0 -61 -65 -92zM293 1288h76q43 0 43 43q0 18 -12.5 30.5t-30.5 12.5h-76v-86z" />
    <glyph glyph-name="macron" unicode="&#xaf;" horiz-adv-x="954" 
d="M729 1485v-160h-504v160h504z" />
    <glyph glyph-name="degree" unicode="&#xb0;" horiz-adv-x="667" 
d="M246 1311q0 -35 26.5 -60.5t61.5 -25.5t61.5 25.5t26.5 60.5t-26.5 60.5t-61.5 25.5t-61.5 -25.5t-26.5 -60.5zM123 1311q0 84 62.5 144.5t148.5 60.5t148.5 -60.5t62.5 -144.5t-62.5 -144.5t-148.5 -60.5t-148.5 60.5t-62.5 144.5z" />
    <glyph glyph-name="plusminus" unicode="&#xb1;" horiz-adv-x="1286" 
d="M123 172h1040v-172h-1040v172zM123 752h426v272h188v-272h426v-172h-426v-273h-188v273h-426v172z" />
    <glyph glyph-name="uni00B2" unicode="&#xb2;" horiz-adv-x="716" 
d="M555 1096l-199 -242h246v-111h-489l346 428q29 37 28 86q0 55 -37.5 94.5t-93 39.5t-93.5 -40t-38 -98h-127q0 102 76 175t182.5 73t184 -70.5t77.5 -173.5q0 -83 -63 -161z" />
    <glyph glyph-name="uni00B3" unicode="&#xb3;" horiz-adv-x="684" 
d="M152 1139l192 235h-209v111h451l-211 -264q106 -16 166.5 -83t60.5 -165q0 -104 -78 -175t-186 -71q-104 0 -180 68.5t-76 171.5h127q0 -53 39 -91t90 -38q55 0 94 40t39 95q0 53 -39 90t-94 37q-57 0 -92 -39z" />
    <glyph glyph-name="acute" unicode="&#xb4;" horiz-adv-x="933" 
d="M225 1210v160l484 166v-205z" />
    <glyph glyph-name="mu" unicode="&#xb5;" horiz-adv-x="1249" 
d="M147 -512v1536h254v-602q0 -94 64.5 -158.5t157.5 -64.5q94 0 159.5 64.5t65.5 158.5v602h254v-1024h-254v158h-4q-94 -188 -285 -189q-80 0 -158 37v-518h-254z" />
    <glyph glyph-name="paragraph" unicode="&#xb6;" horiz-adv-x="1230" 
d="M61 1108q0 162 115 269.5t281 107.5h626v-1485h-180v1262h-151v-1262h-181v727h-114q-164 0 -280 109.5t-116 271.5zM322 1108q0 -63 39.5 -110.5t95.5 -47.5h114v312h-114q-55 0 -95 -46.5t-40 -107.5z" />
    <glyph glyph-name="periodcentered" unicode="&#xb7;" horiz-adv-x="573" 
d="M147 512q0 57 41 97t98.5 40t98.5 -40t41 -97t-41 -97t-98.5 -40t-98.5 40t-41 97z" />
    <glyph glyph-name="cedilla" unicode="&#xb8;" horiz-adv-x="831" 
d="M348 -207l-92 19l31 188h96l-14 -96q96 33 166.5 -17.5t70.5 -144.5q0 -82 -52 -128t-138 -46q-84 0 -137.5 47t-53.5 127h107q0 -35 24.5 -59.5t59.5 -24.5q37 0 61.5 24.5t24.5 59.5t-24.5 58.5t-61.5 23.5q-48 0 -68 -31z" />
    <glyph glyph-name="uni00B9" unicode="&#xb9;" horiz-adv-x="540" 
d="M123 1243v121l270 152v-773h-127v578z" />
    <glyph glyph-name="ordmasculine" unicode="&#xba;" horiz-adv-x="772" 
d="M543 1229q0 63 -46 109t-112 46t-111 -45t-45 -110.5t46.5 -111.5t109.5 -46q66 0 112 46t46 112zM674 1228.5q0 -114.5 -86 -193.5t-203 -79t-202 79t-85 193.5t85 192.5t202 78t203 -78t86 -192.5z" />
    <glyph glyph-name="guillemotright" unicode="&#xbb;" horiz-adv-x="950" 
d="M475 887l377 -375l-377 -377v254l133 119v6l-133 117v256zM98 887l377 -375l-377 -377v254l131 119v6l-131 117v256z" />
    <glyph glyph-name="onequarter" unicode="&#xbc;" horiz-adv-x="1433" 
d="M338 6l627 1510l98 -39l-631 -1508zM123 1243v121l270 152v-773h-127v578zM737 135l377 608h127v-497h70v-111h-70v-135h-127v135h-377zM952 246h162v270z" />
    <glyph glyph-name="onehalf" unicode="&#xbd;" horiz-adv-x="1536" 
d="M338 6l627 1510l98 -39l-631 -1508zM123 1243v121l270 152v-773h-127v578zM1374 352l-198 -241h245v-111h-489l346 428q29 37 29 86q0 55 -38 94t-93.5 39t-93.5 -40t-38 -97h-126q0 102 75.5 175t182 73t184.5 -71t78 -173q-1 -84 -64 -162z" />
    <glyph glyph-name="threequarters" unicode="&#xbe;" horiz-adv-x="1581" 
d="M152 1139l192 235h-209v111h451l-211 -264q106 -16 166.5 -83t60.5 -165q0 -104 -78 -175t-186 -71q-104 0 -180 68.5t-76 171.5h127q0 -53 39 -91t90 -38q55 0 94 40t39 95q0 53 -39 90t-94 37q-57 0 -92 -39zM485 6l627 1510l98 -39l-630 -1508zM885 135l377 608h127
v-497h69v-111h-69v-135h-127v135h-377zM1100 246h162v270z" />
    <glyph glyph-name="questiondown" unicode="&#xbf;" horiz-adv-x="1247" 
d="M627 -31q-229 0 -379 140.5t-150 361.5q0 188 119 316t283 143v162h254v-347h-127q-115 0 -191 -79.5t-76 -194.5q0 -117 76 -199t190.5 -82t191.5 83t77 198h254q0 -221 -148.5 -361.5t-373.5 -140.5zM774 1353.5q0 -59.5 -44 -102.5t-103.5 -43t-103.5 43t-44 102.5
t44 102.5t103.5 43t103.5 -43t44 -102.5z" />
    <glyph glyph-name="Agrave" unicode="&#xc0;" horiz-adv-x="1511" 
d="M1012 1716v-160l-484 121v205zM1186 0l-111 254l-641 -6l-108 -248h-285l715 1546l714 -1546h-284zM752 979l-222 -510l449 4l-219 506h-8z" />
    <glyph glyph-name="Aacute" unicode="&#xc1;" horiz-adv-x="1511" 
d="M504 1556v160l483 166v-205zM1186 0l-111 254l-641 -6l-108 -248h-285l715 1546l714 -1546h-284zM752 979l-222 -510l449 4l-219 506h-8z" />
    <glyph glyph-name="Acircumflex" unicode="&#xc2;" horiz-adv-x="1511" 
d="M672 1843h168l215 -272h-168l-127 123h-8l-127 -123h-168zM1186 0l-111 254l-641 -6l-108 -248h-285l715 1546l714 -1546h-284zM752 979l-222 -510l449 4l-219 506h-8z" />
    <glyph glyph-name="Atilde" unicode="&#xc3;" horiz-adv-x="1511" 
d="M635 1833q57 0 104 -35t79 -69.5t54 -34.5q31 0 49.5 21.5t18.5 58.5h131q0 -90 -56.5 -150.5t-135.5 -60.5q-57 0 -104.5 34.5t-79 69.5t-54.5 35q-29 0 -47.5 -22.5t-18.5 -61.5h-135q0 92 56.5 153.5t138.5 61.5zM1186 0l-111 254l-641 -6l-108 -248h-285l715 1546
l714 -1546h-284zM752 979l-222 -510l449 4l-219 506h-8z" />
    <glyph glyph-name="Adieresis" unicode="&#xc4;" horiz-adv-x="1511" 
d="M1186 0l-111 254l-641 -6l-108 -248h-285l715 1546l714 -1546h-284zM752 979l-222 -510l449 4l-219 506h-8zM858 1671q0 55 39 94t96.5 39t96 -39t38.5 -94t-38.5 -94t-96 -39t-96.5 39t-39 94zM383 1671q0 55 39 94t96 39t96 -39t39 -94t-39 -94t-96 -39t-96 39t-39 94z
" />
    <glyph glyph-name="Aring" unicode="&#xc5;" horiz-adv-x="1511" 
d="M981 1591q0 -70 -43 -125t-111 -77l643 -1389h-284l-111 254l-641 -6l-108 -248h-285l641 1389q-66 23 -109 78t-43 124q0 88 68 151.5t158 63.5t157.5 -63.5t67.5 -151.5zM752 979l-222 -510l449 4l-219 506h-8zM856 1591q0 41 -29.5 69t-70.5 28t-71 -28t-30 -69
q0 -37 21.5 -62.5t56.5 -31.5l23 49l22 -49q35 6 56.5 31.5t21.5 62.5z" />
    <glyph glyph-name="AE" unicode="&#xc6;" horiz-adv-x="2166" 
d="M1276 221h792v-221h-1046v250l-537 -2l-157 -248h-299l964 1485h1075v-221h-792v-410h655v-221h-655v-412zM1014 1079l-387 -610l395 2v608h-8z" />
    <glyph glyph-name="Ccedilla" unicode="&#xc7;" horiz-adv-x="1622" 
d="M842 -207l-92 19l26 168q-293 45 -485.5 259t-192.5 502q0 322 235.5 548.5t575.5 226.5q182 0 342 -71t273 -196l-174 -170q-76 98 -192 156.5t-249 58.5q-231 0 -390 -161.5t-159 -391t159 -390.5t390 -161q133 0 249 58.5t192 157.5l174 -170q-113 -125 -272.5 -196
t-342.5 -71q-6 0 -18 1t-19 1l-10 -67q96 33 167 -17.5t71 -144.5q0 -82 -52.5 -128t-138.5 -46q-84 0 -137 47t-53 127h106q0 -35 24.5 -59.5t59.5 -24.5q37 0 61.5 24.5t24.5 59.5t-24.5 58.5t-61.5 23.5q-47 0 -67 -31z" />
    <glyph glyph-name="Egrave" unicode="&#xc8;" horiz-adv-x="1292" 
d="M401 221h793v-221h-1047v1485h1047v-221h-793v-410h656v-221h-656v-412zM926 1716v-160l-484 121v205z" />
    <glyph glyph-name="Eacute" unicode="&#xc9;" horiz-adv-x="1292" 
d="M401 221h793v-221h-1047v1485h1047v-221h-793v-410h656v-221h-656v-412zM418 1556v160l483 166v-205z" />
    <glyph glyph-name="Ecircumflex" unicode="&#xca;" horiz-adv-x="1292" 
d="M401 221h793v-221h-1047v1485h1047v-221h-793v-410h656v-221h-656v-412zM590 1843h168l215 -272h-168l-127 123h-8l-127 -123h-168z" />
    <glyph glyph-name="Edieresis" unicode="&#xcb;" horiz-adv-x="1292" 
d="M401 221h793v-221h-1047v1485h1047v-221h-793v-410h656v-221h-656v-412zM774 1671q0 55 39 94t96.5 39t96 -39t38.5 -94t-38.5 -94t-96 -39t-96.5 39t-39 94zM299 1671q0 55 39 94t96.5 39t96 -39t38.5 -94t-38.5 -94t-96 -39t-96.5 39t-39 94z" />
    <glyph glyph-name="Igrave" unicode="&#xcc;" horiz-adv-x="548" 
d="M401 1485v-1485h-254v1485h254zM33 1556v160l483 166v-205z" />
    <glyph glyph-name="Iacute" unicode="&#xcd;" horiz-adv-x="548" 
d="M147 0v1485h254v-1485h-254zM33 1556v160l483 166v-205z" />
    <glyph glyph-name="Icircumflex" unicode="&#xce;" horiz-adv-x="548" 
d="M401 1485v-1485h-254v1485h254zM190 1843h168l215 -272h-167l-127 123h-9l-127 -123h-168z" />
    <glyph glyph-name="Idieresis" unicode="&#xcf;" horiz-adv-x="548" 
d="M401 1485v-1485h-254v1485h254zM356 1671q0 55 39 94t96.5 39t96.5 -39t39 -94t-39 -94t-96.5 -39t-96.5 39t-39 94zM-78 1671q0 55 39 94t96.5 39t96.5 -39t39 -94t-39 -94t-96.5 -39t-96.5 39t-39 94z" />
    <glyph glyph-name="Eth" unicode="&#xd0;" horiz-adv-x="1597" 
d="M74 633v221h125v631h579q311 0 516 -215t205 -528.5t-204.5 -527.5t-516.5 -214h-579v633h-125zM1237 741.5q0 221.5 -129 372t-330 150.5h-325v-410h313v-221h-313v-412h325q201 0 330 149.5t129 371z" />
    <glyph glyph-name="Ntilde" unicode="&#xd1;" horiz-adv-x="1454" 
d="M606 1833q57 0 104.5 -35t79 -69.5t54.5 -34.5q31 0 49 21.5t18 58.5h131q0 -90 -56 -150.5t-136 -60.5q-57 0 -104.5 34.5t-79 69.5t-54.5 35q-29 0 -47 -22.5t-18 -61.5h-135q0 92 56 153.5t138 61.5zM1307 -63l-901 976h-7l2 -913h-254v1546l900 -952h8l-2 891h254
v-1548z" />
    <glyph glyph-name="Ograve" unicode="&#xd2;" horiz-adv-x="1818" 
d="M1163 1716v-160l-483 121v205zM98 741.5q0 321.5 235.5 548t575.5 226.5t575.5 -226.5t235.5 -548t-235.5 -547t-575.5 -225.5t-575.5 225.5t-235.5 547zM360 741.5q0 -229.5 159 -390.5t390.5 -161t390 161t158.5 390.5t-158.5 391t-390 161.5t-390.5 -161.5t-159 -391z
" />
    <glyph glyph-name="Oacute" unicode="&#xd3;" horiz-adv-x="1818" 
d="M655 1556v160l484 166v-205zM98 741.5q0 321.5 235.5 548t575.5 226.5t575.5 -226.5t235.5 -548t-235.5 -547t-575.5 -225.5t-575.5 225.5t-235.5 547zM360 741.5q0 -229.5 159 -390.5t390.5 -161t390 161t158.5 390.5t-158.5 391t-390 161.5t-390.5 -161.5t-159 -391z
" />
    <glyph glyph-name="Ocircumflex" unicode="&#xd4;" horiz-adv-x="1818" 
d="M825 1843h168l215 -272h-168l-127 123h-8l-127 -123h-168zM98 741.5q0 321.5 235.5 548t575.5 226.5t575.5 -226.5t235.5 -548t-235.5 -547t-575.5 -225.5t-575.5 225.5t-235.5 547zM360 741.5q0 -229.5 159 -390.5t390.5 -161t390 161t158.5 390.5t-158.5 391
t-390 161.5t-390.5 -161.5t-159 -391z" />
    <glyph glyph-name="Otilde" unicode="&#xd5;" horiz-adv-x="1818" 
d="M788 1833q57 0 104.5 -35t79.5 -69.5t54 -34.5q31 0 49.5 21.5t18.5 58.5h131q0 -90 -56.5 -150.5t-136.5 -60.5q-57 0 -104 34.5t-79 69.5t-54 35q-29 0 -47.5 -22.5t-18.5 -61.5h-135q0 92 56 153.5t138 61.5zM98 741.5q0 321.5 235.5 548t575.5 226.5t575.5 -226.5
t235.5 -548t-235.5 -547t-575.5 -225.5t-575.5 225.5t-235.5 547zM360 741.5q0 -229.5 159 -390.5t390.5 -161t390 161t158.5 390.5t-158.5 391t-390 161.5t-390.5 -161.5t-159 -391z" />
    <glyph glyph-name="Odieresis" unicode="&#xd6;" horiz-adv-x="1818" 
d="M98 741.5q0 321.5 235.5 548t575.5 226.5t575.5 -226.5t235.5 -548t-235.5 -547t-575.5 -225.5t-575.5 225.5t-235.5 547zM360 741.5q0 -229.5 159 -390.5t390.5 -161t390 161t158.5 390.5t-158.5 391t-390 161.5t-390.5 -161.5t-159 -391zM1012 1671q0 55 39 94t96 39
t96 -39t39 -94t-39 -94t-96 -39t-96 39t-39 94zM537 1671q0 55 38.5 94t96 39t96.5 -39t39 -94t-39 -94t-96.5 -39t-96 39t-38.5 94z" />
    <glyph glyph-name="multiply" unicode="&#xd7;" horiz-adv-x="1241" 
d="M98 117l396 397l-394 393l127 127l394 -393l393 393l129 -127l-395 -393l395 -395l-129 -129l-393 395l-396 -395z" />
    <glyph glyph-name="Oslash" unicode="&#xd8;" horiz-adv-x="1843" 
d="M111 741q0 322 235.5 548.5t575.5 226.5q268 0 479 -150l149 150l146 -144l-144 -143q180 -213 181 -488q0 -322 -235.5 -547t-575.5 -225q-272 0 -482 148l-147 -148l-146 144l142 141q-178 211 -178 487zM922 190q231 0 389.5 161t158.5 390q0 168 -94 312l-766 -766
q138 -97 312 -97zM373 741q0 -174 92 -311l768 768q-143 96 -311 96q-231 0 -390 -162t-159 -391z" />
    <glyph glyph-name="Ugrave" unicode="&#xd9;" horiz-adv-x="1474" 
d="M991 1716v-160l-483 121v205zM1327 1485v-965q0 -252 -165 -401.5t-425 -149.5t-425 149.5t-165 401.5v965h254v-965q0 -147 96.5 -238.5t240 -91.5t239.5 91.5t96 238.5v965h254z" />
    <glyph glyph-name="Uacute" unicode="&#xda;" horiz-adv-x="1474" 
d="M483 1556v160l484 166v-205zM1327 1485v-965q0 -252 -165 -401.5t-425 -149.5t-425 149.5t-165 401.5v965h254v-965q0 -147 96.5 -238.5t240 -91.5t239.5 91.5t96 238.5v965h254z" />
    <glyph glyph-name="Ucircumflex" unicode="&#xdb;" horiz-adv-x="1474" 
d="M653 1843h168l215 -272h-168l-127 123h-8l-127 -123h-168zM1327 1485v-965q0 -252 -165 -401.5t-425 -149.5t-425 149.5t-165 401.5v965h254v-965q0 -147 96.5 -238.5t240 -91.5t239.5 91.5t96 238.5v965h254z" />
    <glyph glyph-name="Udieresis" unicode="&#xdc;" horiz-adv-x="1474" 
d="M1327 1485v-965q0 -252 -165 -401.5t-425 -149.5t-425 149.5t-165 401.5v965h254v-965q0 -147 96.5 -238.5t240 -91.5t239.5 91.5t96 238.5v965h254zM840 1671q0 55 39 94t96 39t96 -39t39 -94t-39 -94t-96 -39t-96 39t-39 94zM365 1671q0 55 38.5 94t96 39t96.5 -39
t39 -94t-39 -94t-96.5 -39t-96 39t-38.5 94z" />
    <glyph glyph-name="Yacute" unicode="&#xdd;" horiz-adv-x="1406" 
d="M453 1556v160l483 166v-205zM1065 1485h301l-532 -858v-627h-254v627l-539 858h301l360 -596h9z" />
    <glyph glyph-name="Thorn" unicode="&#xde;" horiz-adv-x="1386" 
d="M147 0v1485h254v-144h412q203 0 339 -128t136 -326.5t-136 -326.5t-339 -128h-412v-432h-254zM1026 886.5q0 98.5 -61.5 166t-151.5 67.5h-412v-467h412q90 0 151.5 67.5t61.5 166z" />
    <glyph glyph-name="germandbls" unicode="&#xdf;" horiz-adv-x="1187" 
d="M147 0v1112q0 166 129.5 285t307.5 119q182 0 313 -119t131 -285q0 -186 -186 -289q113 -53 180.5 -145t67.5 -213q0 -209 -140.5 -337t-365.5 -128h-84v221h84q100 0 171.5 72t71.5 172t-71.5 172t-171.5 72h-84v221h84q76 0 129 53t53 129t-53.5 129t-129 53t-129 -53
t-53.5 -129v-1112h-254z" />
    <glyph glyph-name="agrave" unicode="&#xe0;" horiz-adv-x="1388" 
d="M987 0v164h-2q-119 -195 -342 -195q-227 0 -386 156t-159 387q0 229 160 386t385 157q207 0 342 -178h2v147h254v-1024h-254zM360 512q0 -129 91.5 -221t222.5 -92t222 92t91 221t-91 221t-222 92t-222.5 -92t-91.5 -221zM924 1370v-160l-484 121v205z" />
    <glyph glyph-name="aacute" unicode="&#xe1;" horiz-adv-x="1388" 
d="M987 0v164h-2q-119 -195 -342 -195q-227 0 -386 156t-159 387q0 229 160 386t385 157q207 0 342 -178h2v147h254v-1024h-254zM360 512q0 -129 91.5 -221t222.5 -92t222 92t91 221t-91 221t-222 92t-222.5 -92t-91.5 -221zM418 1210v160l483 166v-205z" />
    <glyph glyph-name="acircumflex" unicode="&#xe2;" horiz-adv-x="1388" 
d="M987 0v164h-2q-119 -195 -342 -195q-227 0 -386 156t-159 387q0 229 160 386t385 157q207 0 342 -178h2v147h254v-1024h-254zM360 512q0 -129 91.5 -221t222.5 -92t222 92t91 221t-91 221t-222 92t-222.5 -92t-91.5 -221zM590 1485h168l215 -273h-168l-127 123h-8
l-127 -123h-168z" />
    <glyph glyph-name="atilde" unicode="&#xe3;" horiz-adv-x="1388" 
d="M987 0v164h-2q-119 -195 -342 -195q-227 0 -386 156t-159 387q0 229 160 386t385 157q207 0 342 -178h2v147h254v-1024h-254zM360 512q0 -129 91.5 -221t222.5 -92t222 92t91 221t-91 221t-222 92t-222.5 -92t-91.5 -221zM553 1501q57 0 104.5 -34.5t79 -69.5t54.5 -35
q31 0 49 21.5t18 58.5h131q0 -90 -56 -150.5t-136 -60.5q-57 0 -104.5 34.5t-79 69.5t-54.5 35q-29 0 -47 -22.5t-18 -61.5h-136q0 92 56.5 153.5t138.5 61.5z" />
    <glyph glyph-name="adieresis" unicode="&#xe4;" horiz-adv-x="1388" 
d="M987 0v164h-2q-119 -195 -342 -195q-227 0 -386 156t-159 387q0 229 160 386t385 157q207 0 342 -178h2v147h254v-1024h-254zM360 512q0 -129 91.5 -221t222.5 -92t222 92t91 221t-91 221t-222 92t-222.5 -92t-91.5 -221zM776 1368q0 55 39 94t96.5 39t96.5 -39t39 -94
t-39 -94t-96.5 -39t-96.5 39t-39 94zM301 1368q0 55 39 94t96.5 39t96 -39t38.5 -94t-38.5 -94t-96 -39t-96.5 39t-39 94z" />
    <glyph glyph-name="aring" unicode="&#xe5;" horiz-adv-x="1388" 
d="M987 0v164h-2q-119 -195 -342 -195q-227 0 -386 156t-159 387q0 229 160 386t385 157q207 0 342 -178h2v147h254v-1024h-254zM360 512q0 -129 91.5 -221t222.5 -92t222 92t91 221t-91 221t-222 92t-222.5 -92t-91.5 -221zM899 1321q0 -90 -67.5 -152.5t-157.5 -62.5
t-157.5 62.5t-67.5 152.5q0 88 67.5 151.5t157.5 63.5t157.5 -63.5t67.5 -151.5zM774 1321q0 41 -29.5 68.5t-70.5 27.5t-71 -27.5t-30 -68.5t30 -68.5t71 -27.5t70.5 27.5t29.5 68.5z" />
    <glyph glyph-name="ae" unicode="&#xe6;" horiz-adv-x="2265" 
d="M2167 514q0 -59 -15 -115h-823q27 -92 109 -151.5t180 -59.5q86 0 165 42t120 108l170 -150q-78 -100 -198 -159.5t-257 -59.5q-231 0 -377 183v-152h-254v164h-2q-119 -195 -342 -195q-227 0 -386 156t-159 387q0 229 160 386t385 157q207 0 342 -178h2v147h254v-152
q145 182 377 183q227 0 388 -158t161 -383zM360 512q0 -129 91.5 -221t222.5 -92t222 92t91 221t-91 221t-222 92t-222.5 -92t-91.5 -221zM1331 612h567q-23 98 -100.5 163t-179.5 65t-183 -65t-104 -163z" />
    <glyph glyph-name="ccedilla" unicode="&#xe7;" horiz-adv-x="1153" 
d="M674 199q129 0 221 92l172 -174q-168 -147 -393 -148q-25 0 -37 2l-10 -67q96 33 166.5 -17.5t70.5 -144.5q0 -82 -52 -128t-138 -46q-84 0 -137.5 47t-53.5 127h107q0 -35 24.5 -59.5t59.5 -24.5q37 0 61.5 24.5t24.5 59.5t-24.5 58.5t-61.5 23.5q-47 0 -68 -31l-92 19
l27 174q-188 41 -315.5 186t-127.5 340q0 229 172 386t404 157q227 0 393 -150l-172 -172q-96 92 -221 92q-129 0 -221.5 -92t-92.5 -221t92.5 -221t221.5 -92z" />
    <glyph glyph-name="egrave" unicode="&#xe8;" horiz-adv-x="1304" 
d="M909 1370v-160l-483 121v205zM1206 514q0 -59 -14 -115h-823q27 -92 108.5 -151.5t179.5 -59.5q86 0 165 42t120 108l170 -150q-78 -100 -197.5 -159.5t-257.5 -59.5q-233 0 -396 157t-163 388q0 229 163 385t396 156q227 0 388 -158t161 -383zM371 612h567
q-23 98 -100.5 163t-180 65t-183 -65t-103.5 -163z" />
    <glyph glyph-name="eacute" unicode="&#xe9;" horiz-adv-x="1304" 
d="M401 1210v160l484 166v-205zM1206 514q0 -59 -14 -115h-823q27 -92 108.5 -151.5t179.5 -59.5q86 0 165 42t120 108l170 -150q-78 -100 -197.5 -159.5t-257.5 -59.5q-233 0 -396 157t-163 388q0 229 163 385t396 156q227 0 388 -158t161 -383zM371 612h567
q-23 98 -100.5 163t-180 65t-183 -65t-103.5 -163z" />
    <glyph glyph-name="ecircumflex" unicode="&#xea;" horiz-adv-x="1304" 
d="M1206 514q0 -59 -14 -115h-823q27 -92 108.5 -151.5t179.5 -59.5q86 0 165 42t120 108l170 -150q-78 -100 -197.5 -159.5t-257.5 -59.5q-233 0 -396 157t-163 388q0 229 163 385t396 156q227 0 388 -158t161 -383zM371 612h567q-23 98 -100.5 163t-180 65t-183 -65
t-103.5 -163zM573 1485h168l215 -273h-168l-126 123h-9l-127 -123h-168z" />
    <glyph glyph-name="edieresis" unicode="&#xeb;" horiz-adv-x="1304" 
d="M1206 514q0 -59 -14 -115h-823q27 -92 108.5 -151.5t179.5 -59.5q86 0 165 42t120 108l170 -150q-78 -100 -197.5 -159.5t-257.5 -59.5q-233 0 -396 157t-163 388q0 229 163 385t396 156q227 0 388 -158t161 -383zM371 612h567q-23 98 -100.5 163t-180 65t-183 -65
t-103.5 -163zM756 1368q0 55 39 94t96 39t96 -39t39 -94t-39 -94t-96 -39t-96 39t-39 94zM281 1368q0 55 38.5 94t96 39t96.5 -39t39 -94t-39 -94t-96.5 -39t-96 39t-38.5 94z" />
    <glyph glyph-name="igrave" unicode="&#xec;" horiz-adv-x="548" 
d="M147 1024h254v-1024h-254v1024zM516 1370v-160l-483 121v205z" />
    <glyph glyph-name="iacute" unicode="&#xed;" horiz-adv-x="548" 
d="M147 1024h254v-1024h-254v1024zM33 1210v160l483 166v-205z" />
    <glyph glyph-name="icircumflex" unicode="&#xee;" horiz-adv-x="548" 
d="M147 1024h254v-1024h-254v1024zM190 1485h168l215 -273h-167l-127 123h-9l-127 -123h-168z" />
    <glyph glyph-name="idieresis" unicode="&#xef;" horiz-adv-x="548" 
d="M147 1024h254v-1024h-254v1024zM356 1368q0 55 39 94t96.5 39t96.5 -39t39 -94t-39 -94t-96.5 -39t-96.5 39t-39 94zM-78 1368q0 55 39 94t96.5 39t96.5 -39t39 -94t-39 -94t-96.5 -39t-96.5 39t-39 94z" />
    <glyph glyph-name="eth" unicode="&#xf0;" horiz-adv-x="1347" 
d="M240 1536h309l69 -84l113 94l70 -82l-113 -94l434 -520q127 -150 127 -338q0 -229 -172 -386t-403.5 -157t-403.5 157t-172 386q0 231 154 379.5t362 148.5q16 0 45 -4l-153 181l-115 -97l-69 82l116 96zM987 512q0 129 -92 221t-221 92t-221.5 -92t-92.5 -221t92.5 -221
t221.5 -92t221 92t92 221z" />
    <glyph glyph-name="ntilde" unicode="&#xf1;" horiz-adv-x="1232" 
d="M401 0h-254v1024h254v-158h2q94 188 297 189q176 0 289 -122t113 -315v-618h-254v602q0 94 -64.5 158.5t-159 64.5t-159 -64.5t-64.5 -158.5v-602zM504 1501q57 0 104 -34.5t79 -69.5t54 -35q31 0 49.5 21.5t18.5 58.5h131q0 -90 -56.5 -150.5t-135.5 -60.5
q-57 0 -104.5 34.5t-79.5 69.5t-54 35q-29 0 -47.5 -22.5t-18.5 -61.5h-135q0 92 56.5 153.5t138.5 61.5z" />
    <glyph glyph-name="ograve" unicode="&#xf2;" horiz-adv-x="1347" 
d="M928 1370v-160l-484 121v205zM987 512q0 129 -92 221t-221 92t-221.5 -92t-92.5 -221t92.5 -221t221.5 -92t221 92t92 221zM1249 512q0 -229 -172 -386t-403.5 -157t-403.5 157t-172 386t172 386t403.5 157t403.5 -157t172 -386z" />
    <glyph glyph-name="oacute" unicode="&#xf3;" horiz-adv-x="1347" 
d="M987 512q0 129 -92 221t-221 92t-221.5 -92t-92.5 -221t92.5 -221t221.5 -92t221 92t92 221zM1249 512q0 -229 -172 -386t-403.5 -157t-403.5 157t-172 386t172 386t403.5 157t403.5 -157t172 -386zM418 1210v160l483 166v-205z" />
    <glyph glyph-name="ocircumflex" unicode="&#xf4;" horiz-adv-x="1347" 
d="M987 512q0 129 -92 221t-221 92t-221.5 -92t-92.5 -221t92.5 -221t221.5 -92t221 92t92 221zM1249 512q0 -229 -172 -386t-403.5 -157t-403.5 157t-172 386t172 386t403.5 157t403.5 -157t172 -386zM590 1485h168l215 -273h-168l-127 123h-8l-127 -123h-168z" />
    <glyph glyph-name="otilde" unicode="&#xf5;" horiz-adv-x="1347" 
d="M553 1501q57 0 104.5 -34.5t79 -69.5t54.5 -35q31 0 49 21.5t18 58.5h131q0 -90 -56 -150.5t-136 -60.5q-57 0 -104.5 34.5t-79 69.5t-54.5 35q-29 0 -47 -22.5t-18 -61.5h-136q0 92 56.5 153.5t138.5 61.5zM987 512q0 129 -92 221t-221 92t-221.5 -92t-92.5 -221
t92.5 -221t221.5 -92t221 92t92 221zM1249 512q0 -229 -172 -386t-403.5 -157t-403.5 157t-172 386t172 386t403.5 157t403.5 -157t172 -386z" />
    <glyph glyph-name="odieresis" unicode="&#xf6;" horiz-adv-x="1347" 
d="M987 512q0 129 -92 221t-221 92t-221.5 -92t-92.5 -221t92.5 -221t221.5 -92t221 92t92 221zM1249 512q0 -229 -172 -386t-403.5 -157t-403.5 157t-172 386t172 386t403.5 157t403.5 -157t172 -386zM776 1368q0 55 39 94t96.5 39t96.5 -39t39 -94t-39 -94t-96.5 -39
t-96.5 39t-39 94zM301 1368q0 55 39 94t96.5 39t96 -39t38.5 -94t-38.5 -94t-96 -39t-96.5 39t-39 94z" />
    <glyph glyph-name="divide" unicode="&#xf7;" horiz-adv-x="1286" 
d="M504 123q0 57 41 97t98 40t98 -40t41 -97t-41 -97t-98 -40t-98 40t-41 97zM504 901q0 57 41 97t98 40t98 -40t41 -97t-41 -97t-98 -40t-98 40t-41 97zM123 598h1040v-172h-1040v172z" />
    <glyph glyph-name="oslash" unicode="&#xf8;" horiz-adv-x="1372" 
d="M1262 512q0 -229 -172 -386t-404 -157q-176 0 -321 92l-93 -92l-129 129l84 84q-117 147 -116 330q0 229 172 386t403 157q174 0 320 -94l94 94l127 -129l-84 -84q119 -146 119 -330zM999 512q0 80 -38 147l-422 -423q63 -37 147 -37q129 0 221 92t92 221zM373 512
q0 -82 37 -147l424 423q-74 37 -148 37q-129 0 -221 -92t-92 -221z" />
    <glyph glyph-name="ugrave" unicode="&#xf9;" horiz-adv-x="1232" 
d="M831 1024h254v-1024h-254v158h-4q-94 -188 -297 -189q-176 0 -287.5 122t-111.5 315v618h254v-602q0 -94 64.5 -158.5t156.5 -64.5q94 0 159.5 64.5t65.5 158.5v602zM854 1370v-160l-483 121v205z" />
    <glyph glyph-name="uacute" unicode="&#xfa;" horiz-adv-x="1232" 
d="M831 1024h254v-1024h-254v158h-4q-94 -188 -297 -189q-176 0 -287.5 122t-111.5 315v618h254v-602q0 -94 64.5 -158.5t156.5 -64.5q94 0 159.5 64.5t65.5 158.5v602zM362 1210v160l484 166v-205z" />
    <glyph glyph-name="ucircumflex" unicode="&#xfb;" horiz-adv-x="1232" 
d="M831 1024h254v-1024h-254v158h-4q-94 -188 -297 -189q-176 0 -287.5 122t-111.5 315v618h254v-602q0 -94 64.5 -158.5t156.5 -64.5q94 0 159.5 64.5t65.5 158.5v602zM522 1485h168l215 -273h-168l-127 123h-8l-127 -123h-168z" />
    <glyph glyph-name="udieresis" unicode="&#xfc;" horiz-adv-x="1232" 
d="M831 1024h254v-1024h-254v158h-4q-94 -188 -297 -189q-176 0 -287.5 122t-111.5 315v618h254v-602q0 -94 64.5 -158.5t156.5 -64.5q94 0 159.5 64.5t65.5 158.5v602zM711 1368q0 55 38.5 94t96 39t96.5 -39t39 -94t-39 -94t-96.5 -39t-96 39t-38.5 94zM236 1368
q0 55 38.5 94t96 39t96.5 -39t39 -94t-39 -94t-96.5 -39t-96 39t-38.5 94z" />
    <glyph glyph-name="yacute" unicode="&#xfd;" horiz-adv-x="1132" 
d="M311 1210v160l484 166v-205zM1083 1024l-591 -1536h-259l205 535l-389 1001h260l256 -682h4l254 682h260z" />
    <glyph glyph-name="thorn" unicode="&#xfe;" horiz-adv-x="1388" 
d="M401 512q0 -129 91.5 -221t222.5 -92t222 92t91 221t-91 221t-222 92t-222.5 -92t-91.5 -221zM401 1536v-676h2q119 195 342 195q227 0 386 -156t159 -387q0 -229 -159.5 -386t-385.5 -157q-207 0 -342 178h-2v-659h-254v2048h254z" />
    <glyph glyph-name="ydieresis" unicode="&#xff;" horiz-adv-x="1132" 
d="M1083 1024l-591 -1536h-259l205 535l-389 1001h260l256 -682h4l254 682h260zM670 1368q0 55 39 94t96 39t96 -39t39 -94t-39 -94t-96 -39t-96 39t-39 94zM195 1368q0 55 38.5 94t96 39t96.5 -39t39 -94t-39 -94t-96.5 -39t-96 39t-38.5 94z" />
    <glyph glyph-name="Amacron" unicode="&#x100;" horiz-adv-x="1511" 
d="M1186 0l-111 254l-641 -6l-108 -248h-285l715 1546l714 -1546h-284zM752 979l-222 -510l449 4l-219 506h-8zM1008 1735v-160h-504v160h504z" />
    <glyph glyph-name="amacron" unicode="&#x101;" horiz-adv-x="1388" 
d="M987 0v164h-2q-119 -195 -342 -195q-227 0 -386 156t-159 387q0 229 160 386t385 157q207 0 342 -178h2v147h254v-1024h-254zM360 512q0 -129 91.5 -221t222.5 -92t222 92t91 221t-91 221t-222 92t-222.5 -92t-91.5 -221zM926 1485v-160h-504v160h504z" />
    <glyph glyph-name="Aogonek" unicode="&#x104;" horiz-adv-x="1511" 
d="M1073 -113q0 -47 33 -79.5t80 -32.5q43 0 80 30v-120q-57 -49 -136 -50q-88 0 -149 60.5t-61 148.5t61 148.5t149 60.5q12 0 33 -4l-88 205l-641 -6l-108 -248h-285l715 1546l714 -1546h-284q-47 0 -80 -33t-33 -80zM752 979l-222 -510l449 4l-219 506h-8z" />
    <glyph glyph-name="aogonek" unicode="&#x105;" horiz-adv-x="1388" 
d="M1049 -113q0 -47 32.5 -79.5t79.5 -32.5q43 0 80 30v-120q-57 -49 -135 -50q-88 0 -149.5 60.5t-61.5 148.5q0 115 92 174v146h-2q-119 -195 -342 -195q-227 0 -386 156t-159 387q0 229 160 386t385 157q207 0 342 -178h2v147h254v-1024h-80q-47 0 -79.5 -33t-32.5 -80z
M360 512q0 -129 91.5 -221t222.5 -92t222 92t91 221t-91 221t-222 92t-222.5 -92t-91.5 -221z" />
    <glyph glyph-name="Cacute" unicode="&#x106;" horiz-adv-x="1622" 
d="M360 741.5q0 -229.5 159 -390.5t390 -161q133 0 249 58.5t192 157.5l174 -170q-113 -125 -272.5 -196t-342.5 -71q-340 0 -575.5 225.5t-235.5 547t235.5 548t575.5 226.5q182 0 342 -71t273 -196l-174 -170q-76 98 -192 156.5t-249 58.5q-231 0 -390 -161.5t-159 -391z
M653 1556v160l484 166v-205z" />
    <glyph glyph-name="cacute" unicode="&#x107;" horiz-adv-x="1153" 
d="M674 199q129 0 221 92l172 -174q-168 -147 -393 -148q-231 0 -403.5 157t-172.5 386t172 386t404 157q227 0 393 -150l-172 -172q-96 92 -221 92q-129 0 -221.5 -92t-92.5 -221t92.5 -221t221.5 -92zM418 1210v160l483 166v-205z" />
    <glyph glyph-name="Ccaron" unicode="&#x10c;" horiz-adv-x="1622" 
d="M360 741.5q0 -229.5 159 -390.5t390 -161q133 0 249 58.5t192 157.5l174 -170q-113 -125 -272.5 -196t-342.5 -71q-340 0 -575.5 225.5t-235.5 547t235.5 548t575.5 226.5q182 0 342 -71t273 -196l-174 -170q-76 98 -192 156.5t-249 58.5q-231 0 -390 -161.5t-159 -391z
M993 1571h-168l-215 272h168l127 -123h8l127 123h168z" />
    <glyph glyph-name="ccaron" unicode="&#x10d;" horiz-adv-x="1153" 
d="M674 199q129 0 221 92l172 -174q-168 -147 -393 -148q-231 0 -403.5 157t-172.5 386t172 386t404 157q227 0 393 -150l-172 -172q-96 92 -221 92q-129 0 -221.5 -92t-92.5 -221t92.5 -221t221.5 -92zM758 1212h-168l-215 273h168l127 -123h8l127 123h168z" />
    <glyph glyph-name="Dcaron" unicode="&#x10e;" horiz-adv-x="1546" 
d="M147 0v1485h580q311 0 516 -215t205 -528.5t-205 -527.5t-516 -214h-580zM1186 741.5q0 221.5 -129 372t-330 150.5h-326v-1043h326q201 0 330 149.5t129 371zM799 1571h-168l-215 272h168l127 -123h8l127 123h168z" />
    <glyph glyph-name="dcaron" unicode="&#x10f;" horiz-adv-x="1636" 
d="M987 512q0 129 -91 221t-222 92t-222.5 -92t-91.5 -221t91.5 -221t222.5 -92t222 92t91 221zM987 0v164h-2q-119 -195 -342 -195q-227 0 -386 156t-159 387q0 229 160 386t385 157q207 0 342 -178h2v659h254v-1536h-254zM1454 1126h-135l102 410h174z" />
    <glyph glyph-name="Dcroat" unicode="&#x110;" horiz-adv-x="1597" 
d="M74 633v221h125v631h579q311 0 516 -215t205 -528.5t-204.5 -527.5t-516.5 -214h-579v633h-125zM1237 741.5q0 221.5 -129 372t-330 150.5h-325v-410h313v-221h-313v-412h325q201 0 330 149.5t129 371z" />
    <glyph glyph-name="dcroat" unicode="&#x111;" horiz-adv-x="1445" 
d="M856 1190v203h131v143h254v-143h131v-203h-131v-1190h-254v164h-2q-119 -195 -342 -195q-227 0 -386 156t-159 387q0 229 160 386t385 157q207 0 342 -178h2v313h-131zM987 512q0 129 -91 221t-222 92t-222.5 -92t-91.5 -221t91.5 -221t222.5 -92t222 92t91 221z" />
    <glyph glyph-name="Emacron" unicode="&#x112;" horiz-adv-x="1292" 
d="M401 221h793v-221h-1047v1485h1047v-221h-793v-410h656v-221h-656v-412zM924 1735v-160h-504v160h504z" />
    <glyph glyph-name="emacron" unicode="&#x113;" horiz-adv-x="1304" 
d="M1206 514q0 -59 -14 -115h-823q27 -92 108.5 -151.5t179.5 -59.5q86 0 165 42t120 108l170 -150q-78 -100 -197.5 -159.5t-257.5 -59.5q-233 0 -396 157t-163 388q0 229 163 385t396 156q227 0 388 -158t161 -383zM371 612h567q-23 98 -100.5 163t-180 65t-183 -65
t-103.5 -163zM909 1485v-160h-503v160h503z" />
    <glyph glyph-name="Edotaccent" unicode="&#x116;" horiz-adv-x="1292" 
d="M401 221h793v-221h-1047v1485h1047v-221h-793v-410h656v-221h-656v-412zM530 1673.5q0 57.5 41 97t100.5 39.5t100.5 -39.5t41 -97t-41 -97.5t-100.5 -40t-100.5 40t-41 97.5z" />
    <glyph glyph-name="edotaccent" unicode="&#x117;" horiz-adv-x="1304" 
d="M1206 514q0 -59 -14 -115h-823q27 -92 108.5 -151.5t179.5 -59.5q86 0 165 42t120 108l170 -150q-78 -100 -197.5 -159.5t-257.5 -59.5q-233 0 -396 157t-163 388q0 229 163 385t396 156q227 0 388 -158t161 -383zM371 612h567q-23 98 -100.5 163t-180 65t-183 -65
t-103.5 -163zM516 1364q0 57 41 97t100.5 40t100.5 -40t41 -97t-41 -97t-100.5 -40t-100.5 40t-41 97z" />
    <glyph glyph-name="Eogonek" unicode="&#x118;" horiz-adv-x="1292" 
d="M1001 -113q0 -47 33 -79.5t80 -32.5q43 0 80 30v-120q-59 -49 -135 -50q-88 0 -149.5 60.5t-61.5 148.5q0 98 67 156h-768v1485h1047v-221h-793v-410h656v-221h-656v-412h793v-221h-80q-47 0 -80 -33t-33 -80z" />
    <glyph glyph-name="eogonek" unicode="&#x119;" horiz-adv-x="1304" 
d="M1206 514q0 -59 -14 -115h-823q27 -92 108.5 -151.5t179.5 -59.5q86 0 165 42t120 108l170 -150q-109 -137 -278 -190q-35 -12 -59.5 -43t-24.5 -68q0 -47 32.5 -79.5t79.5 -32.5q43 0 80 30v-120q-57 -49 -135 -50q-88 0 -149.5 60.5t-61.5 148.5q0 72 41 125
q-227 8 -383 163t-156 382q0 229 163 385t396 156q227 0 388 -158t161 -383zM371 612h567q-23 98 -100.5 163t-180 65t-183 -65t-103.5 -163z" />
    <glyph glyph-name="Ecaron" unicode="&#x11a;" horiz-adv-x="1292" 
d="M401 221h793v-221h-1047v1485h1047v-221h-793v-410h656v-221h-656v-412zM756 1571h-168l-215 272h168l127 -123h8l127 123h168z" />
    <glyph glyph-name="ecaron" unicode="&#x11b;" horiz-adv-x="1304" 
d="M1206 514q0 -59 -14 -115h-823q27 -92 108.5 -151.5t179.5 -59.5q86 0 165 42t120 108l170 -150q-78 -100 -197.5 -159.5t-257.5 -59.5q-233 0 -396 157t-163 388q0 229 163 385t396 156q227 0 388 -158t161 -383zM371 612h567q-23 98 -100.5 163t-180 65t-183 -65
t-103.5 -163zM741 1212h-168l-215 273h168l127 -123h9l126 123h168z" />
    <glyph glyph-name="uni0122" unicode="&#x122;" horiz-adv-x="1622" 
d="M1487 854v-625q-246 -260 -578 -260q-340 0 -575.5 225.5t-235.5 547t235.5 548t575.5 226.5q311 0 543 -222l-170 -166q-160 166 -373 166q-231 0 -390 -161.5t-159 -391t159 -390.5t390 -161q176 0 324 127v316h-324v221h578zM870 -453q72 0 72 80v41q-20 -4 -33 -4
q-57 0 -98 40t-41 97.5t41 97.5t98.5 40t98.5 -40t41 -98v-174q0 -86 -47.5 -130t-131.5 -44h-51v94h51z" />
    <glyph glyph-name="uni0123" unicode="&#x123;" horiz-adv-x="1388" 
d="M668 -317q121 0 220 53t99 151v277h-2q-119 -195 -342 -195q-227 0 -386 156t-159 387q0 229 160 386t385 157q207 0 342 -178h2v147h254v-1063q0 -248 -156.5 -376t-416.5 -128q-236 0 -432 123l118 203q158 -100 314 -100zM360 512q0 -129 91.5 -221t222.5 -92t222 92
t91 221t-91 221t-222 92t-222.5 -92t-91.5 -221zM764 1538h-51q-72 0 -72 -80v-41q20 4 33 4q57 0 98 -40t41 -97t-41 -97t-98.5 -40t-98 40t-40.5 97v174q0 86 47 130t131 44h51v-94z" />
    <glyph glyph-name="Imacron" unicode="&#x12a;" horiz-adv-x="548" 
d="M147 0v1485h254v-1485h-254zM526 1735v-160h-503v160h503z" />
    <glyph glyph-name="imacron" unicode="&#x12b;" horiz-adv-x="548" 
d="M147 1024h254v-1024h-254v1024zM526 1485v-160h-503v160h503z" />
    <glyph glyph-name="Iogonek" unicode="&#x12e;" horiz-adv-x="548" 
d="M231 -113q0 -47 33 -79.5t80 -32.5q43 0 80 30v-120q-59 -49 -135 -50q-88 0 -149.5 60.5t-61.5 148.5q0 96 69 156v1485h254v-1485h-57q-47 0 -80 -33t-33 -80z" />
    <glyph glyph-name="iogonek" unicode="&#x12f;" horiz-adv-x="548" 
d="M231 -113q0 -47 33 -79.5t80 -32.5q43 0 80 30v-120q-59 -49 -135 -50q-88 0 -149.5 60.5t-61.5 148.5q0 96 69 156v1024h254v-1024h-57q-47 0 -80 -33t-33 -80zM119 1400.5q0 63.5 45 107.5t110.5 44t110.5 -44t45 -107.5t-45 -107.5t-110.5 -44t-110.5 44t-45 107.5z
" />
    <glyph glyph-name="dotlessi" unicode="&#x131;" horiz-adv-x="548" 
d="M147 1024h254v-1024h-254v1024z" />
    <glyph glyph-name="uni0136" unicode="&#x136;" horiz-adv-x="1296" 
d="M582 -422q72 0 71 80v41q-20 -4 -32 -4q-57 0 -98.5 40t-41.5 97t41 97t98.5 40t98.5 -40t41 -97v-174q0 -86 -47 -130t-131 -44h-52v94h52zM147 0v1485h254v-701l543 701h311l-579 -744l579 -741h-311l-420 545l-123 -156v-389h-254z" />
    <glyph glyph-name="uni0137" unicode="&#x137;" horiz-adv-x="1167" 
d="M799 1024h331l-450 -475l450 -549h-313l-307 375l-109 -121v-254h-254v1536h254v-934zM545 -422q72 0 71 80v41q-20 -4 -32 -4q-57 0 -98.5 40t-41.5 97t41 97t98.5 40t98.5 -40t41 -97v-174q0 -86 -47 -130t-131 -44h-51v94h51z" />
    <glyph glyph-name="Lacute" unicode="&#x139;" horiz-adv-x="1175" 
d="M1135 221v-221h-988v1485h254v-1264h734zM473 1556v160l483 166v-205z" />
    <glyph glyph-name="lacute" unicode="&#x13a;" horiz-adv-x="548" 
d="M31 1577v160l483 166v-205zM147 0v1536h254v-1536h-254z" />
    <glyph glyph-name="uni013B" unicode="&#x13b;" horiz-adv-x="1175" 
d="M1135 221v-221h-988v1485h254v-1264h734zM602 -422q72 0 72 80v41q-20 -4 -33 -4q-57 0 -98 40t-41 97t41 97t98 40t98 -40t41 -97v-174q0 -86 -47 -130t-131 -44h-51v94h51z" />
    <glyph glyph-name="uni013C" unicode="&#x13c;" horiz-adv-x="548" 
d="M236 -422q72 0 71 80v41q-20 -4 -33 -4q-57 0 -98 40t-41 97t41 97t98.5 40t98.5 -40t41 -97v-174q0 -86 -47.5 -130t-130.5 -44h-52v94h52zM147 0v1536h254v-1536h-254z" />
    <glyph glyph-name="Lcaron" unicode="&#x13d;" horiz-adv-x="1175" 
d="M1135 221v-221h-988v1485h254v-1264h734zM993 1126h-135l103 410h174z" />
    <glyph glyph-name="lcaron" unicode="&#x13e;" horiz-adv-x="796" 
d="M614 1126h-135l103 410h174zM147 0v1536h254v-1536h-254z" />
    <glyph glyph-name="Lslash" unicode="&#x141;" horiz-adv-x="1222" 
d="M1182 221v-221h-987v582l-121 -25v223l121 25v680h254v-627l387 80v-223l-387 -80v-414h733z" />
    <glyph glyph-name="lslash" unicode="&#x142;" horiz-adv-x="630" 
d="M565 934v-223l-123 -27v-684h-254v633l-122 -27v223l122 27v680h254v-629z" />
    <glyph glyph-name="Nacute" unicode="&#x143;" horiz-adv-x="1454" 
d="M473 1556v160l483 166v-205zM1307 -63l-901 976h-7l2 -913h-254v1546l900 -952h8l-2 891h254v-1548z" />
    <glyph glyph-name="nacute" unicode="&#x144;" horiz-adv-x="1232" 
d="M401 0h-254v1024h254v-158h2q94 188 297 189q176 0 289 -122t113 -315v-618h-254v602q0 94 -64.5 158.5t-159 64.5t-159 -64.5t-64.5 -158.5v-602zM377 1210v160l483 166v-205z" />
    <glyph glyph-name="uni0145" unicode="&#x145;" horiz-adv-x="1454" 
d="M688 -422q72 0 72 80v41q-20 -4 -33 -4q-57 0 -98 40t-41 97t41 97t98 40t98 -40t41 -97v-174q0 -86 -47 -130t-131 -44h-51v94h51zM1307 -63l-901 976h-7l2 -913h-254v1546l900 -952h8l-2 891h254v-1548z" />
    <glyph glyph-name="uni0146" unicode="&#x146;" horiz-adv-x="1232" 
d="M586 -422q72 0 71 80v41q-20 -4 -32 -4q-57 0 -98.5 40t-41.5 97t41 97t98.5 40t98.5 -40t41 -97v-174q0 -86 -47 -130t-131 -44h-51v94h51zM401 0h-254v1024h254v-158h2q94 188 297 189q176 0 289 -122t113 -315v-618h-254v602q0 94 -64.5 158.5t-159 64.5t-159 -64.5
t-64.5 -158.5v-602z" />
    <glyph glyph-name="Ncaron" unicode="&#x147;" horiz-adv-x="1454" 
d="M811 1571h-168l-215 272h168l127 -123h8l127 123h168zM1307 -63l-901 976h-7l2 -913h-254v1546l900 -952h8l-2 891h254v-1548z" />
    <glyph glyph-name="ncaron" unicode="&#x148;" horiz-adv-x="1232" 
d="M401 0h-254v1024h254v-158h2q94 188 297 189q176 0 289 -122t113 -315v-618h-254v602q0 94 -64.5 158.5t-159 64.5t-159 -64.5t-64.5 -158.5v-602zM709 1212h-168l-215 273h168l127 -123h8l127 123h168z" />
    <glyph glyph-name="Omacron" unicode="&#x14c;" horiz-adv-x="1818" 
d="M1161 1735v-160h-504v160h504zM98 741.5q0 321.5 235.5 548t575.5 226.5t575.5 -226.5t235.5 -548t-235.5 -547t-575.5 -225.5t-575.5 225.5t-235.5 547zM360 741.5q0 -229.5 159 -390.5t390.5 -161t390 161t158.5 390.5t-158.5 391t-390 161.5t-390.5 -161.5t-159 -391z
" />
    <glyph glyph-name="omacron" unicode="&#x14d;" horiz-adv-x="1347" 
d="M926 1485v-160h-504v160h504zM987 512q0 129 -92 221t-221 92t-221.5 -92t-92.5 -221t92.5 -221t221.5 -92t221 92t92 221zM1249 512q0 -229 -172 -386t-403.5 -157t-403.5 157t-172 386t172 386t403.5 157t403.5 -157t172 -386z" />
    <glyph glyph-name="Ohungarumlaut" unicode="&#x150;" horiz-adv-x="1818" 
d="M805 1829h186l-160 -258h-186zM1081 1829h189l-160 -258h-188zM98 741.5q0 321.5 235.5 548t575.5 226.5t575.5 -226.5t235.5 -548t-235.5 -547t-575.5 -225.5t-575.5 225.5t-235.5 547zM360 741.5q0 -229.5 159 -390.5t390.5 -161t390 161t158.5 390.5t-158.5 391
t-390 161.5t-390.5 -161.5t-159 -391z" />
    <glyph glyph-name="ohungarumlaut" unicode="&#x151;" horiz-adv-x="1347" 
d="M987 512q0 129 -92 221t-221 92t-221.5 -92t-92.5 -221t92.5 -221t221.5 -92t221 92t92 221zM1249 512q0 -229 -172 -386t-403.5 -157t-403.5 157t-172 386t172 386t403.5 157t403.5 -157t172 -386zM559 1485h186l-159 -258h-187zM836 1485h188l-160 -258h-188z" />
    <glyph glyph-name="OE" unicode="&#x152;" horiz-adv-x="2611" 
d="M1720 221h793v-221h-1047v209q-223 -240 -557 -240q-340 0 -575.5 225.5t-235.5 547t235.5 548t575.5 226.5q336 0 557 -242v211h1047v-221h-793v-410h656v-221h-656v-412zM360 741.5q0 -229.5 159 -390.5t390.5 -161t390 161t158.5 390.5t-158.5 391t-390 161.5
t-390.5 -161.5t-159 -391z" />
    <glyph glyph-name="oe" unicode="&#x153;" horiz-adv-x="2193" 
d="M2095 514q0 -59 -14 -115h-824q27 -92 109 -151.5t180 -59.5q86 0 165 42t120 108l170 -150q-78 -100 -198 -159.5t-257 -59.5q-131 0 -243.5 56.5t-188.5 156.5q-78 -98 -194.5 -155.5t-245.5 -57.5q-231 0 -403.5 157t-172.5 386t172 386t404 157q129 0 244.5 -56.5
t195.5 -156.5q76 100 188.5 156.5t243.5 56.5q227 0 388 -158t161 -383zM987 512q0 129 -92 221t-221 92t-221.5 -92t-92.5 -221t92.5 -221t221.5 -92t221 92t92 221zM1260 612h567q-23 98 -100.5 163t-180 65t-183 -65t-103.5 -163z" />
    <glyph glyph-name="Racute" unicode="&#x154;" horiz-adv-x="1386" 
d="M1288 989q0 -158 -86 -279.5t-227 -179.5l272 -530h-284l-246 494h-316v-494h-254v1485h625q217 0 366.5 -141.5t149.5 -354.5zM1026 989.5q0 112.5 -73.5 193.5t-180.5 81h-371v-549h371q106 0 180 81t74 193.5zM438 1556v160l484 166v-205z" />
    <glyph glyph-name="racute" unicode="&#x155;" horiz-adv-x="854" 
d="M662 1055q82 0 155 -25l-80 -229q-37 12 -75 12q-109 0 -185 -77t-76 -187v-549h-254v1024h254v-152q105 183 261 183zM217 1210v160l483 166v-205z" />
    <glyph glyph-name="uni0156" unicode="&#x156;" horiz-adv-x="1386" 
d="M1288 989q0 -158 -86 -279.5t-227 -179.5l272 -530h-284l-246 494h-316v-494h-254v1485h625q217 0 366.5 -141.5t149.5 -354.5zM1026 989.5q0 112.5 -73.5 193.5t-180.5 81h-371v-549h371q106 0 180 81t74 193.5zM631 -422q72 0 71 80v41q-20 -4 -32 -4q-57 0 -98.5 40
t-41.5 97t41 97t98.5 40t98.5 -40t41 -97v-174q0 -86 -47 -130t-131 -44h-51v94h51z" />
    <glyph glyph-name="uni0157" unicode="&#x157;" horiz-adv-x="854" 
d="M412 -422q72 0 71 80v41q-20 -4 -32 -4q-57 0 -98.5 40t-41.5 97t41 97t98.5 40t98.5 -40t41 -97v-174q0 -86 -47 -130t-131 -44h-52v94h52zM662 1055q82 0 155 -25l-80 -229q-37 12 -75 12q-109 0 -185 -77t-76 -187v-549h-254v1024h254v-152q105 183 261 183z" />
    <glyph glyph-name="Rcaron" unicode="&#x158;" horiz-adv-x="1386" 
d="M1288 989q0 -158 -86 -279.5t-227 -179.5l272 -530h-284l-246 494h-316v-494h-254v1485h625q217 0 366.5 -141.5t149.5 -354.5zM1026 989.5q0 112.5 -73.5 193.5t-180.5 81h-371v-549h371q106 0 180 81t74 193.5zM778 1571h-168l-215 272h168l127 -123h8l127 123h168z
" />
    <glyph glyph-name="rcaron" unicode="&#x159;" horiz-adv-x="854" 
d="M662 1055q82 0 155 -25l-80 -229q-37 12 -75 12q-109 0 -185 -77t-76 -187v-549h-254v1024h254v-152q105 183 261 183zM532 1212h-167l-215 273h167l127 -123h9l127 123h168z" />
    <glyph glyph-name="Sacute" unicode="&#x15a;" horiz-adv-x="1302" 
d="M1149 1350l-133 -187q-158 131 -371 131q-119 0 -192.5 -57t-75.5 -150q-2 -68 43 -110.5t117.5 -63t161.5 -36t177.5 -42t162 -69.5t119.5 -128t46 -208q0 -207 -160.5 -335t-398.5 -128q-322 0 -547 193l135 190q72 -72 182.5 -117t229.5 -45q135 0 220 68t85 174
q0 86 -61.5 135t-153.5 63.5t-198.5 39t-198.5 58.5t-153.5 126t-61.5 235q0 190 151.5 309.5t370.5 119.5q289 0 504 -166zM391 1556v160l483 166v-205z" />
    <glyph glyph-name="sacute" unicode="&#x15b;" horiz-adv-x="1077" 
d="M530 193q86 -4 136.5 23.5t50.5 76.5q0 51 -45 78.5t-112.5 34t-145.5 22.5t-145.5 42t-112.5 94.5t-45 176.5q0 147 115.5 231.5t303.5 84.5q227 0 410 -121l-111 -188q-109 86 -299 86q-158 0 -157 -93q0 -59 62.5 -83.5t151.5 -34t178 -31t151.5 -95t62.5 -204.5
q0 -152 -129 -238t-320 -86q-248 0 -432 121l121 201q112 -86 311 -98zM279 1210v160l483 166v-205z" />
    <glyph glyph-name="Scaron" unicode="&#x160;" horiz-adv-x="1302" 
d="M1149 1350l-133 -187q-158 131 -371 131q-119 0 -192.5 -57t-75.5 -150q-2 -68 43 -110.5t117.5 -63t161.5 -36t177.5 -42t162 -69.5t119.5 -128t46 -208q0 -207 -160.5 -335t-398.5 -128q-322 0 -547 193l135 190q72 -72 182.5 -117t229.5 -45q135 0 220 68t85 174
q0 86 -61.5 135t-153.5 63.5t-198.5 39t-198.5 58.5t-153.5 126t-61.5 235q0 190 151.5 309.5t370.5 119.5q289 0 504 -166zM729 1571h-168l-215 272h168l127 -123h8l127 123h168z" />
    <glyph glyph-name="scaron" unicode="&#x161;" horiz-adv-x="1077" 
d="M530 193q86 -4 136.5 23.5t50.5 76.5q0 51 -45 78.5t-112.5 34t-145.5 22.5t-145.5 42t-112.5 94.5t-45 176.5q0 147 115.5 231.5t303.5 84.5q227 0 410 -121l-111 -188q-109 86 -299 86q-158 0 -157 -93q0 -59 62.5 -83.5t151.5 -34t178 -31t151.5 -95t62.5 -204.5
q0 -152 -129 -238t-320 -86q-248 0 -432 121l121 201q112 -86 311 -98zM614 1212h-168l-215 273h168l127 -123h9l127 123h167z" />
    <glyph glyph-name="Tcaron" unicode="&#x164;" horiz-adv-x="1212" 
d="M690 1571h-168l-215 272h168l127 -123h8l127 123h168zM1163 1264h-430v-1264h-254v1264h-430v221h1114v-221z" />
    <glyph glyph-name="tcaron" unicode="&#x165;" horiz-adv-x="972" 
d="M61 819v205h113v334h254v-334h195v-205h-195v-557q0 -33 25.5 -55.5t60.5 -22.5q41 0 72 25l65 -180q-80 -59 -209 -60q-119 0 -193.5 76t-74.5 197v577h-113zM807 1126h-135l102 410h174z" />
    <glyph glyph-name="Umacron" unicode="&#x16a;" horiz-adv-x="1474" 
d="M989 1735v-160h-504v160h504zM1327 1485v-965q0 -252 -165 -401.5t-425 -149.5t-425 149.5t-165 401.5v965h254v-965q0 -147 96.5 -238.5t240 -91.5t239.5 91.5t96 238.5v965h254z" />
    <glyph glyph-name="umacron" unicode="&#x16b;" horiz-adv-x="1232" 
d="M831 1024h254v-1024h-254v158h-4q-94 -188 -297 -189q-176 0 -287.5 122t-111.5 315v618h254v-602q0 -94 64.5 -158.5t156.5 -64.5q94 0 159.5 64.5t65.5 158.5v602zM860 1485v-160h-504v160h504z" />
    <glyph glyph-name="Uring" unicode="&#x16e;" horiz-adv-x="1474" 
d="M1327 1485v-965q0 -252 -165 -401.5t-425 -149.5t-425 149.5t-165 401.5v965h254v-965q0 -147 96.5 -238.5t240 -91.5t239.5 91.5t96 238.5v965h254zM963 1591q0 -90 -68 -152.5t-158 -62.5t-157.5 62.5t-67.5 152.5q0 88 67.5 151.5t157.5 63.5t158 -63.5t68 -151.5z
M838 1591q0 41 -30 69t-71 28t-70.5 -28t-29.5 -69t29.5 -68.5t70.5 -27.5t71 27.5t30 68.5z" />
    <glyph glyph-name="uring" unicode="&#x16f;" horiz-adv-x="1232" 
d="M831 1024h254v-1024h-254v158h-4q-94 -188 -297 -189q-176 0 -287.5 122t-111.5 315v618h254v-602q0 -94 64.5 -158.5t156.5 -64.5q94 0 159.5 64.5t65.5 158.5v602zM831 1321q0 -90 -67.5 -152.5t-157.5 -62.5t-157.5 62.5t-67.5 152.5q0 88 67.5 151.5t157.5 63.5
t157.5 -63.5t67.5 -151.5zM707 1321q0 41 -30 68.5t-71 27.5t-70.5 -27.5t-29.5 -68.5t29.5 -68.5t70.5 -27.5t71 27.5t30 68.5z" />
    <glyph glyph-name="Uhungarumlaut" unicode="&#x170;" horiz-adv-x="1474" 
d="M1327 1485v-965q0 -252 -165 -401.5t-425 -149.5t-425 149.5t-165 401.5v965h254v-965q0 -147 96.5 -238.5t240 -91.5t239.5 91.5t96 238.5v965h254zM621 1829h186l-160 -258h-186zM897 1829h188l-159 -258h-189z" />
    <glyph glyph-name="uhungarumlaut" unicode="&#x171;" horiz-adv-x="1232" 
d="M831 1024h254v-1024h-254v158h-4q-94 -188 -297 -189q-176 0 -287.5 122t-111.5 315v618h254v-602q0 -94 64.5 -158.5t156.5 -64.5q94 0 159.5 64.5t65.5 158.5v602zM489 1485h187l-160 -258h-186zM766 1485h188l-159 -258h-189z" />
    <glyph glyph-name="Uogonek" unicode="&#x172;" horiz-adv-x="1474" 
d="M1327 1485v-965q0 -201 -104.5 -337t-284.5 -187q-37 -10 -60.5 -40t-23.5 -69q0 -47 33 -79.5t80 -32.5q43 0 80 30v-120q-59 -49 -136 -50q-88 0 -149.5 60.5t-61.5 148.5q0 72 41 125h-4q-260 0 -425 149.5t-165 401.5v965h254v-965q0 -147 96.5 -238.5t240 -91.5
t239.5 91.5t96 238.5v965h254z" />
    <glyph glyph-name="uogonek" unicode="&#x173;" horiz-adv-x="1232" 
d="M915 -113q0 -47 33 -79.5t80 -32.5q43 0 80 30v-120q-59 -49 -135 -50q-88 0 -149.5 60.5t-61.5 148.5q0 96 69 156v158h-4q-94 -188 -297 -189q-176 0 -287.5 122t-111.5 315v618h254v-602q0 -94 64.5 -158.5t156.5 -64.5q94 0 159.5 64.5t65.5 158.5v602h254v-1024h-67
q-43 -4 -73 -36t-30 -77z" />
    <glyph glyph-name="Ydieresis" unicode="&#x178;" horiz-adv-x="1406" 
d="M1065 1485h301l-532 -858v-627h-254v627l-539 858h301l360 -596h9zM807 1671q0 55 39 94t96 39t96 -39t39 -94t-39 -94t-96 -39t-96 39t-39 94zM332 1671q0 55 39 94t96 39t96 -39t39 -94t-39 -94t-96 -39t-96 39t-39 94z" />
    <glyph glyph-name="Zacute" unicode="&#x179;" horiz-adv-x="1308" 
d="M436 1556v160l484 166v-205zM127 1264v221h1141l-797 -1268l711 4v-221h-1141l797 1266z" />
    <glyph glyph-name="zacute" unicode="&#x17a;" horiz-adv-x="1064" 
d="M291 1210v160l483 166v-205zM489 221h482v-221h-922l529 799v4h-482v221h920l-527 -799v-4z" />
    <glyph glyph-name="Zdotaccent" unicode="&#x17b;" horiz-adv-x="1308" 
d="M514 1673.5q0 57.5 41 97t100.5 39.5t100.5 -39.5t41 -97t-41 -97.5t-100.5 -40t-100.5 40t-41 97.5zM127 1264v221h1141l-797 -1268l711 4v-221h-1141l797 1266z" />
    <glyph glyph-name="zdotaccent" unicode="&#x17c;" horiz-adv-x="1064" 
d="M391 1364q0 57 41 97t100.5 40t100.5 -40t41 -97t-41 -97t-100.5 -40t-100.5 40t-41 97zM489 221h482v-221h-922l529 799v4h-482v221h920l-527 -799v-4z" />
    <glyph glyph-name="Zcaron" unicode="&#x17d;" horiz-adv-x="1308" 
d="M739 1571h-168l-215 272h168l127 -123h8l127 123h168zM127 1264v221h1141l-797 -1268l711 4v-221h-1141l797 1266z" />
    <glyph glyph-name="zcaron" unicode="&#x17e;" horiz-adv-x="1064" 
d="M616 1212h-167l-216 273h168l127 -123h9l127 123h167zM489 221h482v-221h-922l529 799v4h-482v221h920l-527 -799v-4z" />
    <glyph glyph-name="florin" unicode="&#x192;" horiz-adv-x="950" 
d="M414 829h-140l29 195h139l39 264q18 115 101.5 181.5t185.5 66.5h141l-28 -195h-72q-29 0 -51.5 -20.5t-28.5 -50.5l-35 -246h140l-29 -195h-139l-152 -1093q-16 -115 -99 -181.5t-188 -66.5h-186l29 195h116q29 0 52.5 21.5t27.5 49.5z" />
    <glyph glyph-name="circumflex" unicode="&#x2c6;" horiz-adv-x="1048" 
d="M440 1485h168l215 -273h-168l-127 123h-8l-127 -123h-168z" />
    <glyph glyph-name="caron" unicode="&#x2c7;" horiz-adv-x="1048" 
d="M608 1212h-168l-215 273h168l127 -123h8l127 123h168z" />
    <glyph glyph-name="breve" unicode="&#x2d8;" horiz-adv-x="993" 
d="M586 1493h182q-20 -104 -95 -168.5t-175 -64.5q-98 0 -175 64.5t-98 168.5h187q2 -33 29.5 -54.5t56.5 -21.5q31 0 57.5 21.5t30.5 54.5z" />
    <glyph glyph-name="dotaccent" unicode="&#x2d9;" horiz-adv-x="733" 
d="M225 1364q0 57 41 97t100.5 40t100.5 -40t41 -97t-41 -97t-100.5 -40t-100.5 40t-41 97z" />
    <glyph glyph-name="ring" unicode="&#x2da;" horiz-adv-x="901" 
d="M676 1321q0 -90 -67.5 -152.5t-158 -62.5t-158 62.5t-67.5 152.5q0 88 67.5 151.5t158 63.5t158 -63.5t67.5 -151.5zM551 1321q0 41 -29.5 68.5t-70.5 27.5t-71 -27.5t-30 -68.5t30 -68.5t71 -27.5t70.5 27.5t29.5 68.5z" />
    <glyph glyph-name="ogonek" unicode="&#x2db;" horiz-adv-x="641" 
d="M301 -113q0 -47 33 -79.5t80 -32.5q43 0 80 30v-120q-59 -49 -136 -50q-88 0 -149.5 60.5t-61.5 148.5t61.5 148.5t149.5 60.5q27 0 56 -6v-47q-47 0 -80 -33t-33 -80z" />
    <glyph glyph-name="tilde" unicode="&#x2dc;" horiz-adv-x="1081" 
d="M420 1501q57 0 104 -34.5t79 -69.5t54 -35q31 0 49.5 21.5t18.5 58.5h131q0 -90 -56.5 -150.5t-135.5 -60.5q-57 0 -104.5 34.5t-79 69.5t-54.5 35q-29 0 -47.5 -22.5t-18.5 -61.5h-135q0 92 56.5 153.5t138.5 61.5z" />
    <glyph glyph-name="hungarumlaut" unicode="&#x2dd;" horiz-adv-x="1075" 
d="M385 1485h186l-159 -258h-187zM662 1485h188l-160 -258h-188z" />
    <glyph glyph-name="pi" unicode="&#x3c0;" horiz-adv-x="1253" 
d="M1049 -31q-154 0 -225.5 60.5t-71.5 208.5v565h-250v-803h-254v803h-191v221h1139v-221h-190v-580q0 -57 51 -57q25 0 47 8v-201q-24 -4 -55 -4z" />
    <glyph glyph-name="endash" unicode="&#x2013;" horiz-adv-x="1200" 
d="M123 598h954v-172h-954v172z" />
    <glyph glyph-name="emdash" unicode="&#x2014;" horiz-adv-x="1720" 
d="M123 598h1474v-172h-1474v172z" />
    <glyph glyph-name="quoteleft" unicode="&#x2018;" horiz-adv-x="573" 
d="M377 1407h-51q-72 0 -72 -80v-41q20 4 33 4q57 0 98 -40t41 -97t-41 -97t-98.5 -40t-98.5 40t-41 97v174q0 86 47.5 130t131.5 44h51v-94z" />
    <glyph glyph-name="quoteright" unicode="&#x2019;" horiz-adv-x="573" 
d="M197 1110h51q72 0 71 80v41q-20 -4 -32 -4q-57 0 -98.5 40t-41.5 97t41 97t98.5 40t98.5 -40t41 -97v-174q0 -86 -47 -130t-131 -44h-51v94z" />
    <glyph glyph-name="quotesinglbase" unicode="&#x201a;" horiz-adv-x="573" 
d="M248 -131q72 0 71 80v41q-20 -4 -32 -4q-57 0 -98.5 40t-41.5 97t41 97t98.5 40t98.5 -40t41 -97v-174q0 -86 -47 -130t-131 -44h-51v94h51z" />
    <glyph glyph-name="quotedblleft" unicode="&#x201c;" horiz-adv-x="897" 
d="M377 1407h-51q-72 0 -72 -80v-41q20 4 33 4q57 0 98 -40t41 -97t-41 -97t-98.5 -40t-98.5 40t-41 97v174q0 86 47.5 130t131.5 44h51v-94zM700 1407h-51q-72 0 -71 -80v-41q20 4 32 4q57 0 98.5 -40t41.5 -97t-41 -97t-98.5 -40t-98.5 40t-41 97v174q0 86 47 130t131 44
h51v-94z" />
    <glyph glyph-name="quotedblright" unicode="&#x201d;" horiz-adv-x="897" 
d="M520 1110h51q72 0 72 80v41q-20 -4 -33 -4q-57 0 -98 40t-41 97t41 97t98.5 40t98.5 -40t41 -97v-174q0 -86 -47.5 -130t-131.5 -44h-51v94zM197 1110h51q72 0 71 80v41q-20 -4 -32 -4q-57 0 -98.5 40t-41.5 97t41 97t98.5 40t98.5 -40t41 -97v-174q0 -86 -47 -130
t-131 -44h-51v94z" />
    <glyph glyph-name="quotedblbase" unicode="&#x201e;" horiz-adv-x="897" 
d="M248 -131q72 0 71 80v41q-20 -4 -32 -4q-57 0 -98.5 40t-41.5 97t41 97t98.5 40t98.5 -40t41 -97v-174q0 -86 -47 -130t-131 -44h-51v94h51zM571 -131q72 0 72 80v41q-20 -4 -33 -4q-57 0 -98 40t-41 97t41 97t98.5 40t98.5 -40t41 -97v-174q0 -86 -47.5 -130t-131.5 -44
h-51v94h51z" />
    <glyph glyph-name="dagger" unicode="&#x2020;" horiz-adv-x="1126" 
d="M147 1024h353v461h127v-461h352v-113h-352v-1185h-127v1185h-353v113z" />
    <glyph glyph-name="daggerdbl" unicode="&#x2021;" horiz-adv-x="1126" 
d="M147 1024h353v461h127v-461h352v-113h-352v-612h352v-113h-352v-460h-127v460h-353v113h353v612h-353v113z" />
    <glyph glyph-name="bullet" unicode="&#x2022;" horiz-adv-x="917" 
d="M246 512q0 86 62.5 147.5t150.5 61.5t150.5 -61.5t62.5 -147.5t-62.5 -147.5t-150.5 -61.5t-150.5 61.5t-62.5 147.5z" />
    <glyph glyph-name="ellipsis" unicode="&#x2026;" horiz-adv-x="1941" 
d="M147 123q0 57 41 97t98.5 40t98.5 -40t41 -97t-41 -97t-98.5 -40t-98.5 40t-41 97zM831 123q0 57 41 97t98.5 40t98.5 -40t41 -97t-41 -97t-98.5 -40t-98.5 40t-41 97zM1516 123q0 57 40.5 97t98 40t98.5 -40t41 -97t-41 -97t-98.5 -40t-98 40t-40.5 97z" />
    <glyph glyph-name="perthousand" unicode="&#x2030;" horiz-adv-x="2633" 
d="M98 1132.5q0 155.5 114 267t273 111.5q111 0 204 -57t142 -151q23 -45 68 -74t96 -29q94 0 152 80l156 233l147 -96l-977 -1452l-147 96l647 961q-61 6 -111 27q-29 -129 -135 -212t-242 -83q-160 0 -273.5 111.5t-113.5 267zM913 350.5q0 155.5 114 267t273.5 111.5
t273.5 -111.5t114 -267t-114 -267.5t-273.5 -112t-273.5 112t-114 267.5zM287 1132.5q0 -79.5 58 -137t140 -57.5t140.5 57.5t58.5 137t-58.5 137t-140.5 57.5t-140 -57.5t-58 -137zM1102 350q0 -80 58.5 -137t140 -57t140 57t58.5 137t-58.5 137.5t-140 57.5t-140 -57.5
t-58.5 -137.5zM1761 350.5q0 155.5 114 267t273.5 111.5t273 -111.5t113.5 -267t-113.5 -267.5t-273 -112t-273.5 112t-114 267.5zM1950 350q0 -80 58 -137t140 -57t140.5 57t58.5 137t-58.5 137.5t-140.5 57.5t-140 -57.5t-58 -137.5z" />
    <glyph glyph-name="guilsinglleft" unicode="&#x2039;" horiz-adv-x="573" 
d="M98 512l377 375v-256l-133 -117v-6l133 -119v-254z" />
    <glyph glyph-name="guilsinglright" unicode="&#x203a;" horiz-adv-x="573" 
d="M98 887l377 -375l-377 -377v254l133 119v6l-133 117v256z" />
    <glyph glyph-name="fraction" unicode="&#x2044;" horiz-adv-x="1036" 
d="M156 6l626 1510l99 -39l-631 -1508z" />
    <glyph glyph-name="Euro" unicode="&#x20ac;" horiz-adv-x="1544" 
d="M1049 541h-539q35 -166 131 -258.5t246 -92.5q227 0 332 213l227 -112q-174 -322 -559 -322q-264 0 -430 152.5t-213 419.5h-162v151h145v109h-139v151h158q47 262 213 414t428 152q385 0 559 -322l-227 -113q-104 213 -332 213q-147 0 -243.5 -91t-133.5 -253h651
l-43 -151h-629v-109h603z" />
    <glyph glyph-name="trademark" unicode="&#x2122;" horiz-adv-x="776" 
d="M678 1485v-307h-57v168h-3l-65 -168h-57l-68 168h-2v-168h-57v307h57l96 -232h4l95 232h57zM98 1485h240v-53h-90v-254h-58v254h-92v53z" />
    <glyph glyph-name="Omega" unicode="&#x2126;" horiz-adv-x="1800" 
d="M1702 780q0 -264 -277 -559h217v-221h-530v221q147 59 237.5 205.5t90.5 321.5q0 227 -157 386.5t-384 159.5q-223 0 -381 -159.5t-158 -386.5q0 -172 90.5 -318.5t237.5 -208.5v-221h-530v221h217q-276 295 -277 559q0 324 231.5 530t569.5 206t570.5 -206t232.5 -530z
" />
    <glyph glyph-name="partialdiff" unicode="&#x2202;" horiz-adv-x="1431" 
d="M1333 672q0 -309 -173 -506t-443 -197q-264 0 -441.5 162t-177.5 424q0 219 150.5 370.5t367.5 151.5q133 0 254 -53t189 -150l4 5q0 215 -129 318t-303 103q-109 0 -228 -57l-84 187q63 33 158.5 59.5t171.5 26.5q326 0 505 -204t179 -640zM1071 543q0 150 -103.5 253
t-251 103t-252 -103.5t-104.5 -252.5q0 -145 104.5 -249t252 -104t251 104t103.5 249z" />
    <glyph glyph-name="Delta" unicode="&#x2206;" horiz-adv-x="1167" 
d="M1118 0h-1069l447 1485h176zM293 172h581l-286 991h-8z" />
    <glyph glyph-name="product" unicode="&#x220f;" horiz-adv-x="1253" 
d="M1196 1264h-190v-1264h-254v1264h-250v-1264h-254v1264h-191v221h1139v-221z" />
    <glyph glyph-name="summation" unicode="&#x2211;" horiz-adv-x="1136" 
d="M1071 221v-221h-1005v221l499 520l-499 523v221h1005v-221h-672v-4l508 -519l-508 -516v-4h672z" />
    <glyph glyph-name="minus" unicode="&#x2212;" horiz-adv-x="1390" 
d="M123 598h1040v-172h-1040v172z" />
    <glyph glyph-name="radical" unicode="&#x221a;" horiz-adv-x="1048" 
d="M393 545l119 -303h8l258 1243h197l-316 -1485h-233l-117 309h-6l-45 -127h-184l141 363h178z" />
    <glyph glyph-name="infinity" unicode="&#x221e;" horiz-adv-x="1511" 
d="M756 629q125 197 293 196q137 0 238.5 -91t101.5 -222q0 -133 -101.5 -224t-238.5 -91q-166 0 -293 190q-127 -190 -293 -190q-137 0 -238.5 91t-101.5 224q0 131 101.5 222t238.5 91q168 1 293 -196zM1231 510q0 78 -53.5 131t-128.5 53q-111 0 -220 -186
q106 -178 220 -178q78 0 130 52t52 128zM682 508q-109 186 -219 186q-76 0 -129 -53t-53 -131q0 -76 52 -128t130 -52q113 0 219 178z" />
    <glyph glyph-name="integral" unicode="&#x222b;" horiz-adv-x="686" 
d="M219 -246l-2 1534q2 115 75 181.5t177 66.5h160v-195h-92q-29 0 -48.5 -20.5t-21.5 -50.5l4 -1534q-2 -115 -75.5 -181.5t-176.5 -66.5h-162v195h95q29 0 48 21t19 50z" />
    <glyph glyph-name="approxequal" unicode="&#x2248;" horiz-adv-x="1286" 
d="M123 578v172q14 6 39.5 15t97.5 27.5t134.5 23.5t134 -9t114.5 -57q41 -43 110.5 -58.5t138.5 -7.5t131 22.5t101 28.5l39 15v-172q-14 -6 -40.5 -15.5t-98.5 -27t-134.5 -23.5t-133 9.5t-111.5 56.5q-43 43 -112.5 58t-138 7t-131 -22.5t-101.5 -28.5zM123 276v173
q14 6 39.5 15t97.5 27.5t134.5 23.5t134 -9t114.5 -57q41 -43 110.5 -58.5t138.5 -7.5t131 22.5t101 28.5l39 15v-173q-14 -6 -40.5 -15t-98.5 -26.5t-134.5 -23.5t-133 9.5t-111.5 55.5q-43 43 -112.5 58.5t-138 7.5t-131 -22.5t-101.5 -28.5z" />
    <glyph glyph-name="notequal" unicode="&#x2260;" horiz-adv-x="1286" 
d="M123 750h649l205 204l100 -114l-90 -90h176v-172h-348l-129 -129h477v-173h-649l-205 -204l-100 114l90 90h-176v173h348l129 129h-477v172z" />
    <glyph glyph-name="lessequal" unicode="&#x2264;" horiz-adv-x="800" 
d="M98 172h604v-172h-604v172zM98 754l604 270v-197l-401 -159v-9l401 -159v-197l-604 268v183z" />
    <glyph glyph-name="greaterequal" unicode="&#x2265;" horiz-adv-x="800" 
d="M98 172h604v-172h-604v172zM98 1024l604 -270v-183l-604 -268v197l402 159v9l-402 159v197z" />
    <glyph glyph-name="lozenge" unicode="&#x25ca;" horiz-adv-x="1130" 
d="M471 1485h188l373 -742l-373 -743h-188l-373 743zM567 213l256 530l-256 529h-4l-256 -529l256 -530h4z" />
    <glyph glyph-name="uniF8FF" unicode="&#xf8ff;" horiz-adv-x="1024" 
 />
    <glyph glyph-name="uniFB00" unicode="&#xfb00;" horiz-adv-x="1431" 
d="M424 819v-819h-254v819h-96v205h96v272q0 119 87 195t212 76q94 0 168 -39l-62 -191q-18 14 -65 15q-35 0 -60.5 -22.5t-25.5 -55.5v-250h491v272q0 119 87.5 195t211.5 76q94 0 168 -39l-61 -191q-18 14 -66 15q-35 0 -60.5 -22.5t-25.5 -55.5v-250h174v-205h-174v-819
h-254v819h-491z" />
    <glyph glyph-name="uniFB01" unicode="&#xfb01;" horiz-adv-x="1316" 
d="M74 819v205h96v272q0 119 87 195t212 76q94 0 168 -39l-62 -191q-18 14 -65 15q-35 0 -60.5 -22.5t-25.5 -55.5v-250h745v-1024h-254v819h-491v-819h-254v819h-96zM887 1400.5q0 63.5 45 107.5t110.5 44t110.5 -44t45 -107.5t-45 -107.5t-110.5 -44t-110.5 44t-45 107.5z
" />
    <glyph glyph-name="uniFB02" unicode="&#xfb02;" horiz-adv-x="1316" 
d="M860 1331h-350q-35 0 -60.5 -25.5t-25.5 -60.5v-221h174v-205h-174v-819h-254v819h-96v205h96v242q0 117 99.5 193.5t240.5 76.5h350q133 0 221 -66.5t88 -185.5v-1284h-254v1284q0 47 -55 47z" />
    <glyph glyph-name="uniFB03" unicode="&#xfb03;" horiz-adv-x="2062" 
d="M74 819v205h96v272q0 119 87 195t212 76q94 0 168 -39l-62 -191q-18 14 -65 15q-35 0 -60.5 -22.5t-25.5 -55.5v-250h491v272q0 119 87.5 195t211.5 76q94 0 168 -39l-61 -191q-18 14 -66 15q-35 0 -60.5 -22.5t-25.5 -55.5v-250h746v-1024h-254v819h-492v-819h-254v819
h-491v-819h-254v819h-96zM1632 1400.5q0 63.5 45 107.5t110.5 44t111 -44t45.5 -107.5t-45.5 -107.5t-111 -44t-110.5 44t-45 107.5z" />
    <glyph glyph-name="uniFB04" unicode="&#xfb04;" horiz-adv-x="2062" 
d="M1606 1331h-351q-35 0 -60.5 -25.5t-25.5 -60.5v-221h174v-205h-174v-819h-254v819h-491v-819h-254v819h-96v205h96v272q0 119 87 195t212 76q94 0 168 -39l-62 -191q-18 14 -65 15q-35 0 -60.5 -22.5t-25.5 -55.5v-250h491v242q0 117 99.5 193.5t240.5 76.5h351
q133 0 221 -66.5t88 -185.5v-1284h-254v1284q0 47 -55 47z" />
    <glyph glyph-name="uniFB05" unicode="&#xfb05;" horiz-adv-x="1445" 
d="M61 819v205h113v334h254v-334h492v334h254v-334h194v-205h-194v-557q0 -33 25.5 -55.5t60.5 -22.5q41 0 71 25l66 -180q-80 -59 -209 -60q-119 0 -193.5 76t-74.5 197v577h-492v-557q0 -33 25.5 -55.5t60.5 -22.5q41 0 72 25l65 -180q-80 -59 -209 -60q-119 0 -193.5 76
t-74.5 197v577h-113z" />
    <glyph glyph-name="uniFB06" unicode="&#xfb06;" horiz-adv-x="1445" 
d="M74 819v205h96v272q0 119 87 195t212 76q94 0 168 -39l-62 -191q-18 14 -65 15q-35 0 -60.5 -22.5t-25.5 -55.5v-250h496v334h254v-334h194v-205h-194v-557q0 -33 25.5 -55.5t60.5 -22.5q41 0 71 25l66 -180q-80 -59 -209 -60q-119 0 -193.5 76t-74.5 197v577h-496v-819
h-254v819h-96z" />
    <glyph glyph-name="uniFB07" unicode="&#xfb07;" horiz-adv-x="1280" 
d="M965 604.5q0 -112.5 -80 -192.5t-195 -80h-155v-182h-134v727h289q115 0 195 -80t80 -192.5zM829 604.5q0 59.5 -40.5 102.5t-98.5 43h-155v-291h155q57 0 98 43t41 102.5zM1114 514q0 199 -138 339t-337 140q-197 0 -336 -141t-139 -338q0 -199 139 -340t336 -141
q199 0 337 141t138 340zM1182 514q0 -225 -159 -385t-384 -160q-223 0 -382 160t-159 385q0 223 158 382t383 159t384 -158t159 -383z" />
    <glyph glyph-name="zero.oldstyle" horiz-adv-x="1318" 
d="M1196 604v-182q0 -195 -154.5 -324t-382 -129t-382 129t-154.5 324v182q0 193 154.5 322t382 129t382 -129t154.5 -322zM942 422v182q0 98 -80 164t-202.5 66t-202.5 -66t-80 -164v-182q0 -100 80 -166t202.5 -66t202.5 66t80 166z" />
    <glyph glyph-name="one.oldstyle" horiz-adv-x="802" 
d="M115 541v243l540 303v-1087h-254v696z" />
    <glyph glyph-name="two.oldstyle" horiz-adv-x="1095" 
d="M791 348l-146 -121l2 -6h324v-221h-873l531 485q55 51 80.5 89t25.5 85q0 82 -50 128.5t-144 46.5q-98 0 -143.5 -54.5t-45.5 -136.5h-254q0 176 126 294t317 118q205 0 330.5 -105.5t125.5 -290.5q0 -63 -36.5 -126.5t-73.5 -99.5t-96 -85z" />
    <glyph glyph-name="three.oldstyle" horiz-adv-x="1228" 
d="M231 330l396 473h-428v221h901l-422 -528q211 -33 331.5 -166t120.5 -332q0 -209 -154.5 -349.5t-371.5 -140.5q-211 0 -362.5 138.5t-151.5 339.5h254q0 -102 77 -179t183 -77q109 0 186.5 79.5t77.5 188.5q0 104 -77.5 180t-186.5 76q-113 0 -186 -78z" />
    <glyph glyph-name="four.oldstyle" horiz-adv-x="1228" 
d="M25 -12l755 1038h254v-817h137v-221h-137v-447h-254v447h-755zM485 209h295v405z" />
    <glyph glyph-name="five.oldstyle" horiz-adv-x="1267" 
d="M418 190l-240 39l137 795h695v-221h-484l-53 -332l4 -6q84 41 211 41q207 0 344 -142.5t137 -355.5q0 -233 -149.5 -366.5t-392.5 -133.5q-229 0 -383 135.5t-154 354.5h254q0 -106 86 -187t197 -81q115 0 197.5 82t82.5 196q0 111 -85 194t-195 83q-129 -1 -209 -95z
" />
    <glyph glyph-name="six.oldstyle" horiz-adv-x="1277" 
d="M98 469q0 123 66 233l469 783h276l-317 -522q37 6 72 6q213 0 364.5 -146.5t151.5 -353.5t-159 -353.5t-382 -146.5t-382 146.5t-159 353.5zM360 469q0 -115 82 -197t197 -82t197 82t82 197t-82 197t-197 82t-197 -82t-82 -197z" />
    <glyph glyph-name="seven.oldstyle" horiz-adv-x="1202" 
d="M801 801h-727v223h1075l-588 -1485h-268z" />
    <glyph glyph-name="eight.oldstyle" horiz-adv-x="1261" 
d="M197 1137q0 170 123.5 274.5t310 104.5t310.5 -104.5t124 -274.5t-141 -273q240 -156 239 -407q0 -217 -151.5 -352.5t-381 -135.5t-381 135.5t-151.5 352.5q0 252 240 407q-141 103 -141 273zM360 463q0 -113 79 -193t191.5 -80t191.5 80t79 193q0 109 -80 187.5
t-190.5 78.5t-190.5 -78.5t-80 -187.5zM805 1120.5q0 71.5 -51.5 122.5t-123 51t-122.5 -51t-51 -122.5t51 -123t122.5 -51.5t123 51.5t51.5 123z" />
    <glyph glyph-name="nine.oldstyle" horiz-adv-x="1277" 
d="M1180 555q0 -123 -66 -233l-469 -783h-276l317 522q-37 -6 -72 -6q-213 0 -364.5 146.5t-151.5 353.5t159 353.5t382 146.5t382 -146.5t159 -353.5zM918 555q0 115 -82 197t-197 82t-197 -82t-82 -197t82 -197t197 -82t197 82t82 197z" />
    <glyph glyph-name="dollar.oldstyle" horiz-adv-x="1077" 
d="M414 -195v172q-184 25 -316 113l121 201q113 -86 311 -98q86 -4 136.5 23.5t50.5 76.5q0 51 -45 78.5t-112.5 34t-145.5 22.5t-145.5 42t-112.5 94.5t-45 176.5q0 123 81.5 203t221.5 103v143h233v-143q160 -25 293 -111l-111 -188q-109 86 -299 86q-158 0 -157 -93
q0 -59 62.5 -83.5t151.5 -34t178 -31t151.5 -95t62.5 -204.5q0 -127 -92 -209t-240 -104v-175h-233z" />
    <glyph glyph-name="sterling.oldstyle" horiz-adv-x="1150" 
d="M98 623h129v32q0 190 116 293t310 103q84 0 185.5 -43t160.5 -107l-155 -162q-31 33 -86.5 61.5t-104.5 28.5q-86 0 -129 -36.5t-43 -137.5v-32h330v-215h-330v-101q109 -12 193 -96q27 -27 63.5 -27t65.5 27l92 86l158 -147l-80 -82q-98 -96 -235.5 -96.5t-233.5 96.5
q-27 27 -65 26.5t-64 -26.5l-96 -99l-170 168l94 96q25 25 24 64v111h-129v215z" />
    <glyph glyph-name="yen.oldstyle" horiz-adv-x="1093" 
d="M549 682l207 342h288l-200 -319h133v-146h-217l-58 -100h275v-146h-303v-313h-254v313h-303v146h274l-57 100h-217v146h133l-201 319h289l207 -342h4z" />
    <glyph glyph-name="Euro.oldstyle" horiz-adv-x="1214" 
d="M176 512q0 35 2 51h-96v146h119q47 164 170 255t307 91q313 0 438 -242l-229 -115q-57 143 -209 144q-141 0 -203 -133h301l-41 -146h-295q0 -8 -1 -25.5t-1 -25.5q0 -10 1 -25.5t1 -23.5h271l-41 -146h-195q61 -135 203 -135q152 0 209 144l229 -115
q-125 -242 -438 -242q-184 0 -307 91.5t-170 256.5h-119v146h96q-2 16 -2 49z" />
    <glyph glyph-name="numbersign.oldstyle" horiz-adv-x="1280" 
d="M688 1024l-108 -510h221l108 510h140l-109 -510h279v-133h-308l-45 -205h353v-133h-381l-107 -504h-139l106 504h-221l-106 -504h-140l107 504h-277v133h306l45 205h-351v133h379l109 510h139zM528 381l-45 -205h222l45 205h-222z" />
    <glyph glyph-name="percent.oldstyle" horiz-adv-x="1370" 
d="M698 229.5q0 112.5 85 191.5t202 79t202 -79t85 -191.5t-85 -191.5t-202 -79t-202 79t-85 191.5zM879 229q0 -45 30.5 -74.5t75.5 -29.5t76 29.5t31 74.5t-31 75t-76 30t-75.5 -30t-30.5 -75zM98 784.5q0 112.5 85 191.5t202 79q90 0 165 -51.5t105 -131.5
q20 -41 60.5 -66.5t89.5 -25.5q68 0 117 49l92 93l84 -82l-742 -744l-84 82l494 494q-57 8 -107 37q-27 -86 -102.5 -140.5t-171.5 -54.5q-117 0 -202 79t-85 191.5zM279 784q0 -45 30.5 -74.5t75.5 -29.5t76 29.5t31 74.5t-31 75t-76 30t-75.5 -30t-30.5 -75z" />
    <glyph glyph-name="perthousand.oldstyle" horiz-adv-x="1992" 
d="M1321 229.5q0 112.5 85 191.5t201.5 79t201.5 -79t85 -191.5t-85 -191.5t-201.5 -79t-201.5 79t-85 191.5zM1501 229q0 -45 31 -74.5t76 -29.5t75.5 29.5t30.5 74.5t-30.5 75t-75.5 30t-76 -30t-31 -75zM698 229.5q0 112.5 85 191.5t202 79t202 -79t85 -191.5t-85 -191.5
t-202 -79t-202 79t-85 191.5zM879 229q0 -45 30.5 -74.5t75.5 -29.5t76 29.5t31 74.5t-31 75t-76 30t-75.5 -30t-30.5 -75zM98 784.5q0 112.5 85 191.5t202 79q90 0 165 -51.5t105 -131.5q20 -41 60.5 -66.5t89.5 -25.5q68 0 117 49l92 93l84 -82l-742 -744l-84 82l494 494
q-57 8 -107 37q-27 -86 -102.5 -140.5t-171.5 -54.5q-117 0 -202 79t-85 191.5zM279 784q0 -45 30.5 -74.5t75.5 -29.5t76 29.5t31 74.5t-31 75t-76 30t-75.5 -30t-30.5 -75z" />
    <glyph glyph-name="florin.oldstyle" horiz-adv-x="878" 
d="M367 481h-140l29 195h139l15 100q18 115 101 181.5t185 66.5h142l-29 -195h-72q-29 0 -51 -20.5t-29 -50.5l-10 -82h139l-28 -195h-140l-104 -745q-16 -115 -99 -181.5t-188 -66.5h-186l29 195h116q29 0 52.5 21.5t27.5 49.5z" />
    <glyph glyph-name="currency.oldstyle" horiz-adv-x="1241" 
d="M137 514q0 147 84 270l-121 123l127 127l121 -123q123 84 273 84q147 0 270 -84l123 123l129 -127l-123 -123q84 -127 84 -270q0 -145 -84 -272l123 -123l-129 -129l-123 123q-117 -82 -270.5 -82t-272.5 82l-123 -123l-127 127l123 125q-84 122 -84 272zM315 514
q0 -127 89.5 -217t216.5 -90t217 90t90 217q0 125 -90 215t-217 90q-125 0 -215.5 -90t-90.5 -215z" />
    <glyph glyph-name="cent.oldstyle" horiz-adv-x="987" 
d="M348 395q0 -86 60.5 -146.5t146.5 -60.5q100 0 164 80l182 -137q-92 -113 -223 -145v-181h-244v181q-147 37 -241.5 150.5t-94.5 258.5q0 143 94.5 256t241.5 152v153h244v-153q135 -37 223 -146l-182 -137q-61 82 -164 82q-86 0 -146.5 -60.5t-60.5 -146.5z" />
    <glyph glyph-name="period.oldstyle" horiz-adv-x="573" 
d="M147 123q0 57 41 97t98.5 40t98.5 -40t41 -97t-41 -97t-98.5 -40t-98.5 40t-41 97z" />
    <glyph glyph-name="one.tnum" 
d="M279 999v244l540 303v-1325h336v-221h-926v221h336v934z" />
    <glyph glyph-name="two.tnum" 
d="M1061 705l-395 -484h491v-221h-981l692 856q57 72 58 174q0 109 -76 186.5t-186.5 77.5t-186.5 -79.5t-76 -194.5h-254q0 205 152 350.5t365 145.5q215 0 369.5 -141.5t154.5 -344.5q0 -169 -127 -325z" />
    <glyph glyph-name="three.tnum" 
d="M281 791l383 473h-416v221h901l-422 -529q211 -33 332 -166t121 -331q0 -209 -155 -349.5t-372 -140.5q-211 0 -362.5 138.5t-151.5 338.5h254q0 -102 77 -179t183 -77q109 0 187 80t78 189q0 104 -78 180t-187 76q-113 0 -186 -78z" />
    <glyph glyph-name="four.tnum" 
d="M55 270l756 1215h254v-993h137v-222h-137v-270h-254v270h-756zM485 492h326v540z" />
    <glyph glyph-name="five.tnum" 
d="M451 651l-240 39l137 795h694v-221h-483l-53 -332l4 -6q84 41 211 41q207 0 344 -142.5t137 -355.5q0 -233 -149.5 -366.5t-393.5 -133.5q-229 0 -382.5 135.5t-153.5 354.5h254q0 -106 86 -187.5t196 -81.5q115 0 198 82t83 197q0 111 -85 193.5t-196 82.5
q-128 0 -208 -94z" />
    <glyph glyph-name="six.tnum" 
d="M135 469q0 123 66 233l469 783h276l-317 -522q37 6 71 6q213 0 365 -146.5t152 -353.5t-159 -353.5t-382 -146.5t-382 146.5t-159 353.5zM397 469q0 -115 82 -197t197 -82t196.5 82t81.5 197t-81.5 197t-196.5 82t-197 -82t-82 -197z" />
    <glyph glyph-name="seven.tnum" 
d="M883 1262h-727v223h1075l-588 -1485h-268z" />
    <glyph glyph-name="eight.tnum" 
d="M242 1137q0 170 123.5 274.5t310 104.5t310.5 -104.5t124 -274.5t-141 -273q240 -156 239 -407q0 -217 -151.5 -352.5t-381 -135.5t-381 135.5t-151.5 352.5q0 252 240 407q-141 103 -141 273zM406 463q0 -113 78.5 -193t191 -80t191.5 80t79 193q0 109 -80 187.5
t-190.5 78.5t-190 -78.5t-79.5 -187.5zM850 1120.5q0 71.5 -51 122.5t-123 51t-123 -51t-51 -122.5t51 -123t123 -51.5t123 51.5t51 123z" />
    <glyph glyph-name="nine.tnum" 
d="M1217 1016q0 -123 -66 -234l-469 -782h-276l317 522q-37 -6 -72 -6q-213 0 -364.5 146.5t-151.5 353.5t159 353.5t382 146.5t382 -146.5t159 -353.5zM954 1015.5q0 114.5 -81.5 196.5t-196.5 82t-197 -82t-82 -196.5t82 -196.5t197 -82t196.5 82t81.5 196.5z" />
    <glyph glyph-name="zero.tnum" 
d="M1229 1042v-600q0 -199 -161 -336t-392 -137q-233 0 -393 136.5t-160 336.5v600q0 199 159.5 335t393.5 136q231 0 392 -136t161 -335zM975 442v600q0 104 -86 177t-213 73t-213 -72.5t-86 -177.5v-600q0 -104 86 -178t213 -74t213 74t86 178z" />
    <glyph glyph-name="dollar.tnum" 
d="M553 -221v196q-250 31 -430 185l135 190q72 -72 182.5 -117t229.5 -45q135 0 220 68t85 174q0 86 -61.5 135t-153.5 63.5t-198.5 39t-199 58.5t-154 126t-61.5 235q0 162 114 275t292 143v158h233v-156q213 -27 388 -157l-134 -187q-158 131 -370 131q-119 0 -193 -57
t-76 -150q-2 -68 43 -110.5t118 -63t162 -36t177 -42t162 -69.5t120 -128t46 -208q0 -180 -124 -301t-319 -152v-198h-233z" />
    <glyph glyph-name="sterling.tnum" 
d="M317 631h-161v221h161v178q0 213 143.5 349.5t360.5 136.5q186 0 338 -132l-149 -170q-86 80 -189 80q-119 0 -184.5 -66.5t-65.5 -197.5v-178h375v-221h-375v-299q121 -10 224 -103q39 -39 87 -39t89 37l88 86l155 -161l-79 -80q-111 -104 -259.5 -101.5t-246.5 101.5
q-37 37 -88.5 35.5t-83.5 -35.5l-92 -103l-183 170l99 101q37 37 36 86v305z" />
    <glyph glyph-name="yen.tnum" 
d="M150 887v151h163l-258 447h301l320 -596h8l313 596h301l-256 -447h162v-151h-248l-63 -109h311v-151h-397v-627h-254v627h-403v151h315l-64 109h-251z" />
    <glyph glyph-name="Euro.tnum" 
d="M932 541h-490q74 -350 353 -351q203 0 307 213l227 -112q-174 -322 -534 -322q-254 0 -413 152.5t-206 419.5h-162v151h146v109h-140v151h158q47 264 206 415t411 151q360 0 534 -322l-227 -113q-104 213 -307 213q-139 0 -227.5 -91t-125.5 -253h602l-43 -151h-579v-109
h553z" />
    <glyph glyph-name="numbersign.tnum" 
d="M725 1485l-109 -510h222l108 510h139l-108 -510h278v-133h-307l-45 -205h352v-133h-381l-106 -504h-139l106 504h-221l-106 -504h-140l107 504h-277v133h305l46 205h-351v133h379l109 510h139zM565 842l-45 -205h221l45 205h-221z" />
    <glyph glyph-name="percent.tnum" 
d="M688 229.5q0 112.5 85 191.5t202 79t202 -79t85 -191.5t-85 -191.5t-202 -79t-202 79t-85 191.5zM868 229q0 -45 31 -74.5t76 -29.5t75.5 29.5t30.5 74.5t-30.5 75t-75.5 30t-76 -30t-31 -75zM88 784.5q0 112.5 85 191.5t202 79q90 0 164.5 -51.5t105.5 -131.5
q47 -92 150 -92q68 0 116 49l93 93l83 -82l-741 -744l-84 82l494 494q-57 8 -107 37q-27 -86 -102.5 -140.5t-171.5 -54.5q-117 0 -202 79t-85 191.5zM268 784q0 -45 31 -74.5t76 -29.5t75.5 29.5t30.5 74.5t-30.5 75t-75.5 30t-76 -30t-31 -75z" />
    <glyph glyph-name="perthousand.tnum" 
d="M1264 229.5q0 112.5 85 191.5t201.5 79t201.5 -79t85 -191.5t-85 -191.5t-201.5 -79t-201.5 79t-85 191.5zM1444 229q0 -45 30.5 -74.5t75.5 -29.5t76 29.5t31 74.5t-31 75t-76 30t-75.5 -30t-30.5 -75zM641 229.5q0 112.5 85 191.5t201.5 79t201.5 -79t85 -191.5
t-85 -191.5t-201.5 -79t-201.5 79t-85 191.5zM821 229q0 -45 31 -74.5t76 -29.5t75.5 29.5t30.5 74.5t-30.5 75t-75.5 30t-76 -30t-31 -75zM41 784.5q0 112.5 85 191.5t202 79q90 0 164.5 -51.5t105.5 -131.5q20 -41 60 -66.5t90 -25.5q68 0 116 49l92 93l84 -82l-741 -744
l-84 82l494 494q-57 8 -107 37q-27 -86 -102.5 -140.5t-171.5 -54.5q-117 0 -202 79t-85 191.5zM221 784q0 -45 31 -74.5t76 -29.5t75.5 29.5t30.5 74.5t-30.5 75t-75.5 30t-76 -30t-31 -75z" />
    <glyph glyph-name="florin.tnum" 
d="M594 829h-139l28 195h140l39 262q18 115 101 181.5t185 66.5h142l-29 -195h-72q-29 0 -51.5 -20.5t-28.5 -50.5l-35 -244h140l-29 -195h-139l-152 -1093q-16 -115 -99 -181.5t-187 -66.5h-187l29 195h117q29 0 52 21.5t27 49.5z" />
    <glyph glyph-name="currency.tnum" 
d="M193 514q0 147 83 270l-120 123l127 127l120 -123q123 84 273 84q147 0 270 -84l123 123l129 -127l-123 -123q84 -127 84 -270q0 -145 -84 -272l123 -123l-129 -129l-123 123q-117 -82 -270.5 -82t-272.5 82l-122 -123l-127 127l122 125q-83 122 -83 272zM371 514
q0 -127 89 -217t216 -90t217 90t90 217q0 125 -90 215t-217 90t-216 -90t-89 -215z" />
    <glyph glyph-name="cent.tnum" 
d="M635 -195v177q-195 37 -327 184t-132 346t132 346.5t327 183.5v148h233v-148q154 -31 277 -137l-172 -172q-96 92 -221 92q-129 0 -221.5 -92t-92.5 -221t92.5 -221t221.5 -92t221 92l172 -174q-125 -109 -277 -135v-177h-233z" />
    <glyph glyph-name="period.tnum" 
d="M537 123q0 57 40.5 97t98 40t98.5 -40t41 -97t-41 -97t-98.5 -40t-98 40t-40.5 97z" />
    <glyph glyph-name="zero.tnum.oldstyle" 
d="M1212 604v-182q0 -195 -154.5 -324t-381.5 -129t-382 129t-155 324v182q0 193 155 322t382 129t381.5 -129t154.5 -322zM958 422v182q0 98 -79.5 164t-202.5 66t-203 -66t-80 -164v-182q0 -100 80 -166t203 -66t202.5 66t79.5 166z" />
    <glyph glyph-name="one.tnum.oldstyle" 
d="M293 541v243l541 303v-866h319v-221h-893v221h320v475z" />
    <glyph glyph-name="two.tnum.oldstyle" 
d="M913 348l-145 -121l2 -6h324v-221h-873l531 485q55 51 80.5 89t25.5 85q0 82 -50 128.5t-144 46.5q-98 0 -143.5 -54.5t-45.5 -136.5h-254q0 176 126 294t317 118q205 0 330.5 -105.5t125.5 -290.5q0 -63 -36.5 -126.5t-74 -99.5t-96.5 -85z" />
    <glyph glyph-name="three.tnum.oldstyle" 
d="M281 330l395 473h-428v221h901l-422 -528q211 -33 332 -166t121 -332q0 -209 -155 -349.5t-372 -140.5q-211 0 -362.5 138.5t-151.5 339.5h254q0 -102 77 -179t183 -77q109 0 187 79.5t78 188.5q0 104 -78 180t-187 76q-113 0 -186 -78z" />
    <glyph glyph-name="four.tnum.oldstyle" 
d="M55 -12l756 1038h254v-817h137v-221h-137v-447h-254v447h-756zM516 209h295v405z" />
    <glyph glyph-name="five.tnum.oldstyle" 
d="M451 190l-240 39l137 795h694v-221h-483l-53 -332l4 -6q84 41 211 41q207 0 344 -142.5t137 -355.5q0 -233 -149.5 -366.5t-393.5 -133.5q-229 0 -382.5 135.5t-153.5 354.5h254q0 -106 86 -187t196 -81q115 0 198 82t83 196q0 111 -85 194t-196 83q-128 -1 -208 -95z
" />
    <glyph glyph-name="six.tnum.oldstyle" 
d="M135 469q0 123 66 233l469 783h276l-317 -522q37 6 71 6q213 0 365 -146.5t152 -353.5t-159 -353.5t-382 -146.5t-382 146.5t-159 353.5zM397 469q0 -115 82 -197t197 -82t196.5 82t81.5 197t-81.5 197t-196.5 82t-197 -82t-82 -197z" />
    <glyph glyph-name="seven.tnum.oldstyle" 
d="M883 801h-727v223h1075l-588 -1485h-268z" />
    <glyph glyph-name="eight.tnum.oldstyle" 
d="M242 1137q0 170 123.5 274.5t310 104.5t310.5 -104.5t124 -274.5t-141 -273q240 -156 239 -407q0 -217 -151.5 -352.5t-381 -135.5t-381 135.5t-151.5 352.5q0 252 240 407q-141 103 -141 273zM406 463q0 -113 78.5 -193t191 -80t191.5 80t79 193q0 109 -80 187.5
t-190.5 78.5t-190 -78.5t-79.5 -187.5zM850 1120.5q0 71.5 -51 122.5t-123 51t-123 -51t-51 -122.5t51 -123t123 -51.5t123 51.5t51 123z" />
    <glyph glyph-name="nine.tnum.oldstyle" 
d="M1217 555q0 -123 -66 -233l-469 -783h-276l317 522q-37 -6 -72 -6q-213 0 -364.5 146.5t-151.5 353.5t159 353.5t382 146.5t382 -146.5t159 -353.5zM954 555q0 115 -81.5 197t-196.5 82t-197 -82t-82 -197t82 -197t197 -82t196.5 82t81.5 197z" />
    <glyph glyph-name="dollar.tnum.oldstyle" 
d="M551 -195v172q-184 25 -315 113l120 201q113 -86 312 -98q86 -4 136 23.5t50 76.5q0 51 -45 78.5t-112.5 34t-145.5 22.5t-145.5 42t-112.5 94.5t-45 176.5q0 123 82 203t221 103v143h233v-143q160 -25 293 -111l-110 -188q-109 86 -299 86q-158 0 -158 -93
q0 -59 62.5 -83.5t151.5 -34t178 -31t151.5 -95t62.5 -204.5q0 -127 -92 -209t-240 -104v-175h-233z" />
    <glyph glyph-name="sterling.tnum.oldstyle" 
d="M203 623h129v32q0 190 115.5 293t310.5 103q84 0 185 -43t161 -107l-156 -162q-31 33 -86 61.5t-104 28.5q-86 0 -129 -36.5t-43 -137.5v-32h329v-215h-329v-101q109 -12 192 -96q27 -27 65 -27t64 27l92 86l158 -147l-80 -82q-98 -96 -235 -96.5t-234 96.5
q-27 27 -63.5 26.5t-65.5 -26.5l-96 -99l-170 168l94 96q25 25 25 64v111h-129v215z" />
    <glyph glyph-name="yen.tnum.oldstyle" 
d="M467 1024l207 -342h2l209 342h289l-201 -319h133v-146h-217l-58 -100h275v-146h-303v-313h-254v313h-303v146h274l-57 100h-217v146h133l-201 319h289z" />
    <glyph glyph-name="Euro.tnum.oldstyle" 
d="M221 512q0 35 2 51h-96v146h119q47 164 170 255t307 91q313 0 438 -242l-229 -115q-57 143 -209 144q-141 0 -203 -133h301l-41 -146h-295q0 -8 -1 -25.5t-1 -25.5q0 -10 1 -25.5t1 -23.5h271l-41 -146h-195q61 -135 203 -135q152 0 209 144l229 -115
q-125 -242 -438 -242q-184 0 -307 91.5t-170 256.5h-119v146h96q-2 16 -2 49z" />
    <glyph glyph-name="numbersign.tnum.oldstyle" 
d="M725 1024l-109 -510h222l108 510h139l-108 -510h278v-133h-307l-45 -205h352v-133h-381l-106 -504h-139l106 504h-221l-106 -504h-140l107 504h-277v133h305l46 205h-351v133h379l109 510h139zM565 381l-45 -205h221l45 205h-221z" />
    <glyph glyph-name="percent.tnum.oldstyle" 
d="M688 229.5q0 112.5 85 191.5t202 79t202 -79t85 -191.5t-85 -191.5t-202 -79t-202 79t-85 191.5zM868 229q0 -45 31 -74.5t76 -29.5t75.5 29.5t30.5 74.5t-30.5 75t-75.5 30t-76 -30t-31 -75zM88 784.5q0 112.5 85 191.5t202 79q90 0 164.5 -51.5t105.5 -131.5
q47 -92 150 -92q68 0 116 49l93 93l83 -82l-741 -744l-84 82l494 494q-57 8 -107 37q-27 -86 -102.5 -140.5t-171.5 -54.5q-117 0 -202 79t-85 191.5zM268 784q0 -45 31 -74.5t76 -29.5t75.5 29.5t30.5 74.5t-30.5 75t-75.5 30t-76 -30t-31 -75z" />
    <glyph glyph-name="florin.tnum.oldstyle" 
d="M592 481h-139l28 195h140l14 100q18 115 101 181.5t186 66.5h141l-29 -195h-71q-29 0 -51.5 -20.5t-28.5 -50.5l-11 -82h140l-29 -195h-139l-105 -745q-16 -115 -99 -181.5t-187 -66.5h-187l29 195h117q29 0 52 21.5t28 49.5z" />
    <glyph glyph-name="currency.tnum.oldstyle" 
d="M193 514q0 147 83 270l-120 123l127 127l120 -123q123 84 273 84q147 0 270 -84l123 123l129 -127l-123 -123q84 -127 84 -270q0 -145 -84 -272l123 -123l-129 -129l-123 123q-117 -82 -270.5 -82t-272.5 82l-122 -123l-127 127l122 125q-83 122 -83 272zM371 514
q0 -127 89 -217t216 -90t217 90t90 217q0 125 -90 215t-217 90t-216 -90t-89 -215z" />
    <glyph glyph-name="cent.tnum.oldstyle" 
d="M504 395q0 -86 60.5 -146.5t146.5 -60.5q100 0 163 80l183 -137q-92 -113 -223 -145v-181h-244v181q-147 37 -241.5 150.5t-94.5 258.5q0 143 94 256t242 152v153h244v-153q135 -37 223 -146l-183 -137q-61 82 -163 82q-86 0 -146.5 -60.5t-60.5 -146.5z" />
    <glyph glyph-name="period.tnum.oldstyle" 
d="M537 123q0 57 40.5 97t98 40t98.5 -40t41 -97t-41 -97t-98.5 -40t-98 40t-40.5 97z" />
    <glyph glyph-name="space.oldstyle" horiz-adv-x="552" 
 />
    <glyph glyph-name="space.tnum" 
 />
    <glyph glyph-name="space.tnum.oldstyle" 
 />
    </font>
</defs>
</svg>
